<svg width="84" height="84" viewBox="0 0 84 84" fill="none" xmlns="http://www.w3.org/2000/svg">
<circle cx="42" cy="42" r="42" fill="white"/>
<mask id="path-2-inside-1" fill="white">
<path d="M42.7156 48.4554C42.5138 48.0302 42.0052 47.8488 41.5798 48.0507C40.8877 48.3792 40.1621 48.6507 39.4232 48.8574C39.1141 48.9439 38.8798 49.1964 38.8169 49.5113L37.915 54.0209C37.826 54.4662 37.4317 54.7895 36.9776 54.7895H34.5171C34.0629 54.7895 33.6688 54.4663 33.5797 54.0209L32.6777 49.5113C32.6148 49.1964 32.3804 48.9439 32.0715 48.8574C31.0276 48.5652 30.0201 48.1478 29.0771 47.6166C28.7973 47.4591 28.4527 47.472 28.1857 47.6501L24.3587 50.2014C23.9809 50.4532 23.4736 50.4029 23.1523 50.0819L21.4125 48.3419C21.0913 48.0208 21.0412 47.5135 21.293 47.1356L23.8443 43.3086C24.0224 43.0414 24.0354 42.6969 23.8777 42.4171C23.3465 41.474 22.929 40.4665 22.637 39.4228C22.5505 39.1136 22.2979 38.8794 21.9831 38.8165L17.4735 37.9146C17.0282 37.8256 16.7049 37.4313 16.7049 36.9772V34.5167C16.7049 34.0625 17.0281 33.6684 17.4735 33.5793L21.9831 32.6773C22.2979 32.6143 22.5505 32.38 22.637 32.0711C22.9291 31.0271 23.3466 30.0197 23.8777 29.0767C24.0353 28.797 24.0223 28.4524 23.8443 28.1853L21.2932 24.3587C21.0414 23.9808 21.0916 23.4736 21.4127 23.1523L23.1525 21.4125C23.4737 21.0913 23.9811 21.0413 24.3589 21.293L28.1859 23.8443C28.453 24.0224 28.7976 24.0353 29.0773 23.8777C30.0203 23.3466 31.0278 22.9291 32.0717 22.637C32.3808 22.5505 32.6151 22.2979 32.6779 21.9831L33.5799 17.4735C33.6689 17.0282 34.0632 16.7049 34.5173 16.7049H36.9778C37.4319 16.7049 37.8261 17.0281 37.9152 17.4735L38.8172 21.9831C38.8801 22.2979 39.1145 22.5505 39.4234 22.637C40.4673 22.9291 41.4748 23.3466 42.4178 23.8777C42.6976 24.0353 43.0421 24.0223 43.3092 23.8443L47.1362 21.293C47.514 21.0411 48.0212 21.0915 48.3426 21.4125L50.0824 23.1523C50.4035 23.4735 50.4536 23.9808 50.2019 24.3587L47.6506 28.1857C47.4725 28.4529 47.4595 28.7973 47.6172 29.0771C48.1483 30.0201 48.5657 31.0276 48.8579 32.0715C48.9444 32.3806 49.197 32.6149 49.5118 32.6777L54.0214 33.5797C54.4667 33.6687 54.79 34.063 54.79 34.5171V36.9776C54.79 37.4317 54.4668 37.8259 54.0214 37.915L49.5118 38.817C49.197 38.8799 48.9444 39.1143 48.8579 39.4234C48.646 40.1807 48.3664 40.9235 48.0268 41.6313C47.823 42.0558 48.0021 42.5651 48.4266 42.7688C48.8511 42.9726 49.3606 42.7934 49.5641 42.3689C49.8706 41.7301 50.1337 41.066 50.349 40.3885L54.3559 39.5872C55.595 39.3391 56.4947 38.2416 56.4947 36.9775V34.517C56.4947 33.2528 55.595 32.1554 54.3553 31.9074L50.3486 31.106C50.0858 30.2787 49.7527 29.4744 49.3536 28.7046L51.6203 25.3044C52.3215 24.2526 52.1817 22.8403 51.2878 21.9464L49.548 20.2066C48.6539 19.3126 47.2417 19.173 46.19 19.874L42.7897 22.1408C42.0199 21.7418 41.2156 21.4086 40.3883 21.1458L39.587 17.139C39.3392 15.8996 38.2417 15 36.9776 15H34.5171C33.2529 15 32.1555 15.8996 31.9075 17.1393L31.1061 21.1461C30.2788 21.4089 29.4745 21.742 28.7047 22.1411L25.3047 19.8743C24.253 19.1732 22.8407 19.3128 21.9467 20.2069L20.2069 21.9467C19.313 22.8407 19.1732 24.2528 19.8743 25.3047L22.1411 28.7049C21.7421 29.4747 21.4089 30.2789 21.1461 31.1063L17.1392 31.9077C15.8996 32.1555 15 33.2531 15 34.5172V36.9777C15 38.2418 15.8996 39.3392 17.1393 39.5873L21.1461 40.3887C21.4088 41.2158 21.742 42.0201 22.1411 42.7901L19.8743 46.1903C19.1732 47.2421 19.3129 48.6543 20.2069 49.5483L21.9467 51.2881C22.8407 52.1821 24.2529 52.3217 25.3047 51.6207L28.7049 49.3539C29.4747 49.7529 30.2789 50.0861 31.1063 50.3489L31.9077 54.3559C32.1555 55.5951 33.2531 56.4949 34.5172 56.4949H36.9777C38.2418 56.4949 39.3392 55.5952 39.5873 54.3556L40.3886 50.3488C41.0456 50.1401 41.6904 49.8862 42.3111 49.5915C42.7365 49.3895 42.9177 48.8809 42.7156 48.4554Z"/>
</mask>
<path d="M42.7156 48.4554C42.5138 48.0302 42.0052 47.8488 41.5798 48.0507C40.8877 48.3792 40.1621 48.6507 39.4232 48.8574C39.1141 48.9439 38.8798 49.1964 38.8169 49.5113L37.915 54.0209C37.826 54.4662 37.4317 54.7895 36.9776 54.7895H34.5171C34.0629 54.7895 33.6688 54.4663 33.5797 54.0209L32.6777 49.5113C32.6148 49.1964 32.3804 48.9439 32.0715 48.8574C31.0276 48.5652 30.0201 48.1478 29.0771 47.6166C28.7973 47.4591 28.4527 47.472 28.1857 47.6501L24.3587 50.2014C23.9809 50.4532 23.4736 50.4029 23.1523 50.0819L21.4125 48.3419C21.0913 48.0208 21.0412 47.5135 21.293 47.1356L23.8443 43.3086C24.0224 43.0414 24.0354 42.6969 23.8777 42.4171C23.3465 41.474 22.929 40.4665 22.637 39.4228C22.5505 39.1136 22.2979 38.8794 21.9831 38.8165L17.4735 37.9146C17.0282 37.8256 16.7049 37.4313 16.7049 36.9772V34.5167C16.7049 34.0625 17.0281 33.6684 17.4735 33.5793L21.9831 32.6773C22.2979 32.6143 22.5505 32.38 22.637 32.0711C22.9291 31.0271 23.3466 30.0197 23.8777 29.0767C24.0353 28.797 24.0223 28.4524 23.8443 28.1853L21.2932 24.3587C21.0414 23.9808 21.0916 23.4736 21.4127 23.1523L23.1525 21.4125C23.4737 21.0913 23.9811 21.0413 24.3589 21.293L28.1859 23.8443C28.453 24.0224 28.7976 24.0353 29.0773 23.8777C30.0203 23.3466 31.0278 22.9291 32.0717 22.637C32.3808 22.5505 32.6151 22.2979 32.6779 21.9831L33.5799 17.4735C33.6689 17.0282 34.0632 16.7049 34.5173 16.7049H36.9778C37.4319 16.7049 37.8261 17.0281 37.9152 17.4735L38.8172 21.9831C38.8801 22.2979 39.1145 22.5505 39.4234 22.637C40.4673 22.9291 41.4748 23.3466 42.4178 23.8777C42.6976 24.0353 43.0421 24.0223 43.3092 23.8443L47.1362 21.293C47.514 21.0411 48.0212 21.0915 48.3426 21.4125L50.0824 23.1523C50.4035 23.4735 50.4536 23.9808 50.2019 24.3587L47.6506 28.1857C47.4725 28.4529 47.4595 28.7973 47.6172 29.0771C48.1483 30.0201 48.5657 31.0276 48.8579 32.0715C48.9444 32.3806 49.197 32.6149 49.5118 32.6777L54.0214 33.5797C54.4667 33.6687 54.79 34.063 54.79 34.5171V36.9776C54.79 37.4317 54.4668 37.8259 54.0214 37.915L49.5118 38.817C49.197 38.8799 48.9444 39.1143 48.8579 39.4234C48.646 40.1807 48.3664 40.9235 48.0268 41.6313C47.823 42.0558 48.0021 42.5651 48.4266 42.7688C48.8511 42.9726 49.3606 42.7934 49.5641 42.3689C49.8706 41.7301 50.1337 41.066 50.349 40.3885L54.3559 39.5872C55.595 39.3391 56.4947 38.2416 56.4947 36.9775V34.517C56.4947 33.2528 55.595 32.1554 54.3553 31.9074L50.3486 31.106C50.0858 30.2787 49.7527 29.4744 49.3536 28.7046L51.6203 25.3044C52.3215 24.2526 52.1817 22.8403 51.2878 21.9464L49.548 20.2066C48.6539 19.3126 47.2417 19.173 46.19 19.874L42.7897 22.1408C42.0199 21.7418 41.2156 21.4086 40.3883 21.1458L39.587 17.139C39.3392 15.8996 38.2417 15 36.9776 15H34.5171C33.2529 15 32.1555 15.8996 31.9075 17.1393L31.1061 21.1461C30.2788 21.4089 29.4745 21.742 28.7047 22.1411L25.3047 19.8743C24.253 19.1732 22.8407 19.3128 21.9467 20.2069L20.2069 21.9467C19.313 22.8407 19.1732 24.2528 19.8743 25.3047L22.1411 28.7049C21.7421 29.4747 21.4089 30.2789 21.1461 31.1063L17.1392 31.9077C15.8996 32.1555 15 33.2531 15 34.5172V36.9777C15 38.2418 15.8996 39.3392 17.1393 39.5873L21.1461 40.3887C21.4088 41.2158 21.742 42.0201 22.1411 42.7901L19.8743 46.1903C19.1732 47.2421 19.3129 48.6543 20.2069 49.5483L21.9467 51.2881C22.8407 52.1821 24.2529 52.3217 25.3047 51.6207L28.7049 49.3539C29.4747 49.7529 30.2789 50.0861 31.1063 50.3489L31.9077 54.3559C32.1555 55.5951 33.2531 56.4949 34.5172 56.4949H36.9777C38.2418 56.4949 39.3392 55.5952 39.5873 54.3556L40.3886 50.3488C41.0456 50.1401 41.6904 49.8862 42.3111 49.5915C42.7365 49.3895 42.9177 48.8809 42.7156 48.4554Z" fill="#333333" stroke="white" stroke-width="0.4" mask="url(#path-2-inside-1)"/>
<path d="M43.1782 40.3962L43.1782 40.3962C42.8082 40.2064 42.6622 39.7528 42.8517 39.3833L42.8517 39.3833C43.4318 38.2519 43.726 37.0284 43.726 35.7477C43.726 31.3479 40.1467 27.7687 35.747 27.7687C33.6541 27.7687 31.676 28.5733 30.1777 30.0339L30.1777 30.0339C29.8801 30.3241 29.4036 30.3179 29.1135 30.0203C28.8234 29.7228 28.8295 29.2462 29.1271 28.9561L29.1271 28.9561C30.9084 27.2194 33.2591 26.2633 35.7472 26.2633C40.9768 26.2633 45.2314 30.5181 45.2314 35.7476C45.2314 37.2484 44.8716 38.7431 44.1913 40.0699L44.1912 40.07C44.0581 40.3297 43.7945 40.4793 43.5209 40.4793C43.4054 40.4793 43.2882 40.4527 43.1782 40.3962Z" fill="#333333" stroke="white" stroke-width="0.2"/>
<path d="M26.7773 32.6605C26.9126 32.2674 27.3406 32.0584 27.7338 32.1937L27.7338 32.1937C28.1267 32.3288 28.3356 32.7569 28.2005 33.1499C27.9137 33.9832 27.7685 34.8573 27.7685 35.7472C27.7685 40.1469 31.3478 43.7262 35.7476 43.7262C37.4396 43.7262 39.0562 43.2034 40.422 42.2144C40.7587 41.9707 41.2294 42.046 41.4731 42.3827C41.7169 42.7193 41.6416 43.1899 41.3049 43.4338C39.6805 44.6101 37.7592 45.2317 35.7477 45.2317C30.5182 45.2317 26.2634 40.977 26.2634 35.7474C26.2634 34.6903 26.4363 33.6517 26.7773 32.6605ZM26.7773 32.6605L26.6827 32.628L26.7773 32.6605Z" fill="#333333" stroke="white" stroke-width="0.2"/>
<mask id="path-5-inside-2" fill="white">
<path d="M67.3591 52.2638L64.8936 51.7707C64.7434 51.3238 64.5625 50.8875 64.3528 50.4657L65.7477 48.3734C66.2855 47.5666 66.1784 46.4834 65.4927 45.7979L64.3494 44.6546C63.6638 43.9691 62.5806 43.8618 61.7739 44.3996L59.6816 45.7945C59.2598 45.5848 58.8235 45.404 58.3766 45.2539L57.8836 42.7883C57.6934 41.8375 56.8517 41.1475 55.8821 41.1475H54.2652C53.2957 41.1475 52.4538 41.8375 52.2637 42.7883L51.7706 45.2539C51.3237 45.4041 50.8874 45.585 50.4656 45.7945L48.3734 44.3996C47.5665 43.8619 46.4834 43.969 45.7978 44.6546L44.6545 45.7979C43.9689 46.4835 43.8617 47.5667 44.3995 48.3734L45.7944 50.4657C45.5061 51.0456 45.2725 51.6529 45.0978 52.2774C44.9709 52.7309 45.2358 53.2013 45.6892 53.3283C46.1427 53.4551 46.6131 53.1904 46.7401 52.7369C46.9257 52.0733 47.1911 51.4331 47.5286 50.8339C47.6861 50.5541 47.6731 50.2095 47.4951 49.9425L45.8185 47.4276C45.73 47.2948 45.7476 47.1166 45.8605 47.0037L47.0037 45.8604C47.1166 45.7477 47.2948 45.7302 47.4276 45.8185L49.9425 47.4951C50.2096 47.6732 50.5541 47.6861 50.8339 47.5285C51.4332 47.191 52.0733 46.9257 52.7369 46.74C53.046 46.6536 53.2803 46.401 53.3431 46.0861L53.9358 43.1228C53.967 42.9664 54.1056 42.8528 54.2652 42.8528H55.8821C56.0416 42.8528 56.1802 42.9664 56.2115 43.1228L56.8041 46.0864C56.8671 46.4012 57.1014 46.6538 57.4103 46.7403C58.0739 46.9259 58.7141 47.1912 59.3133 47.5287C59.593 47.6863 59.9377 47.6733 60.2047 47.4953L62.7196 45.8187C62.8524 45.7302 63.0307 45.7477 63.1435 45.8606L64.2868 47.0039C64.3995 47.1168 64.4172 47.295 64.3288 47.4278L62.6521 49.9427C62.474 50.2099 62.461 50.5543 62.6187 50.8341C62.9562 51.4334 63.2216 52.0735 63.4072 52.7371C63.4937 53.0462 63.7463 53.2805 64.0611 53.3433L67.0244 53.936C67.1809 53.9672 67.2944 54.1058 67.2944 54.2653V55.8823C67.2944 56.0418 67.1809 56.1803 67.0244 56.2117L64.0609 56.8043C63.7461 56.8673 63.4935 57.1016 63.407 57.4105C63.2213 58.0741 62.956 58.7143 62.6185 59.3135C62.4609 59.5933 62.4739 59.9379 62.6519 60.2049L64.3286 62.7198C64.417 62.8526 64.3994 63.0309 64.2866 63.1437L63.1433 64.287C63.0306 64.3998 62.8523 64.4174 62.7194 64.329L60.2045 62.6523C59.9375 62.4743 59.5928 62.4613 59.3131 62.6189C58.7138 62.9564 58.0737 63.2218 57.4101 63.4074C57.101 63.4939 56.8668 63.7465 56.8039 64.0613L56.2113 67.0246C56.18 67.1811 56.0415 67.2946 55.8819 67.2946H54.2649C54.1055 67.2946 53.9669 67.1811 53.9356 67.0246L53.3429 64.0611C53.28 63.7463 53.0456 63.4937 52.7367 63.4072C52.0731 63.2215 51.4329 62.9562 50.8337 62.6187C50.5539 62.4611 50.2093 62.4741 49.9423 62.6521L47.4274 64.3288C47.2946 64.4172 47.1164 64.3997 47.0035 64.2868L45.8602 63.1435C45.7475 63.0306 45.7299 62.8524 45.8183 62.7196L47.4949 60.2047C47.673 59.9376 47.686 59.5931 47.5283 59.3133C47.1908 58.714 46.9255 58.0739 46.7399 57.4103C46.6534 57.1012 46.4008 56.8669 46.086 56.8041L43.1226 56.2115C42.9662 56.1802 42.8526 56.0417 42.8526 55.8821V54.2651C42.8526 54.1057 42.9662 53.9671 43.1226 53.9358L43.304 53.8995C43.7657 53.8071 44.0653 53.3579 43.9728 52.8962C43.8804 52.4344 43.4317 52.1354 42.9694 52.2274L42.7879 52.2637C41.8374 52.4539 41.1473 53.2957 41.1473 54.2652V55.8822C41.1473 56.8517 41.8374 57.6935 42.7882 57.8837L45.2537 58.3767C45.4039 58.8236 45.5848 59.2599 45.7943 59.6817L44.3994 61.774C43.8615 62.5808 43.9688 63.664 44.6544 64.3495L45.7977 65.4928C46.4834 66.1785 47.5665 66.2856 48.3733 65.7478L50.4655 64.3529C50.8873 64.5626 51.3236 64.7435 51.7705 64.8935L52.2636 67.3591C52.4539 68.3099 53.2957 69 54.2653 69H55.8822C56.8517 69 57.6935 68.3099 57.8837 67.3591L58.3767 64.8935C58.8236 64.7434 59.2599 64.5625 59.6817 64.3528L61.774 65.7477C62.5808 66.2855 63.664 66.1784 64.3496 65.4927L65.4928 64.3494C66.1785 63.6638 66.2856 62.5806 65.7479 61.7739L64.3529 59.6816C64.5626 59.2598 64.7435 58.8235 64.8936 58.3766L67.3591 57.8836C68.3098 57.6934 68.9999 56.8517 68.9999 55.8821V54.2651C69 53.2957 68.3099 52.4539 67.3591 52.2638Z"/>
</mask>
<path d="M67.3591 52.2638L64.8936 51.7707C64.7434 51.3238 64.5625 50.8875 64.3528 50.4657L65.7477 48.3734C66.2855 47.5666 66.1784 46.4834 65.4927 45.7979L64.3494 44.6546C63.6638 43.9691 62.5806 43.8618 61.7739 44.3996L59.6816 45.7945C59.2598 45.5848 58.8235 45.404 58.3766 45.2539L57.8836 42.7883C57.6934 41.8375 56.8517 41.1475 55.8821 41.1475H54.2652C53.2957 41.1475 52.4538 41.8375 52.2637 42.7883L51.7706 45.2539C51.3237 45.4041 50.8874 45.585 50.4656 45.7945L48.3734 44.3996C47.5665 43.8619 46.4834 43.969 45.7978 44.6546L44.6545 45.7979C43.9689 46.4835 43.8617 47.5667 44.3995 48.3734L45.7944 50.4657C45.5061 51.0456 45.2725 51.6529 45.0978 52.2774C44.9709 52.7309 45.2358 53.2013 45.6892 53.3283C46.1427 53.4551 46.6131 53.1904 46.7401 52.7369C46.9257 52.0733 47.1911 51.4331 47.5286 50.8339C47.6861 50.5541 47.6731 50.2095 47.4951 49.9425L45.8185 47.4276C45.73 47.2948 45.7476 47.1166 45.8605 47.0037L47.0037 45.8604C47.1166 45.7477 47.2948 45.7302 47.4276 45.8185L49.9425 47.4951C50.2096 47.6732 50.5541 47.6861 50.8339 47.5285C51.4332 47.191 52.0733 46.9257 52.7369 46.74C53.046 46.6536 53.2803 46.401 53.3431 46.0861L53.9358 43.1228C53.967 42.9664 54.1056 42.8528 54.2652 42.8528H55.8821C56.0416 42.8528 56.1802 42.9664 56.2115 43.1228L56.8041 46.0864C56.8671 46.4012 57.1014 46.6538 57.4103 46.7403C58.0739 46.9259 58.7141 47.1912 59.3133 47.5287C59.593 47.6863 59.9377 47.6733 60.2047 47.4953L62.7196 45.8187C62.8524 45.7302 63.0307 45.7477 63.1435 45.8606L64.2868 47.0039C64.3995 47.1168 64.4172 47.295 64.3288 47.4278L62.6521 49.9427C62.474 50.2099 62.461 50.5543 62.6187 50.8341C62.9562 51.4334 63.2216 52.0735 63.4072 52.7371C63.4937 53.0462 63.7463 53.2805 64.0611 53.3433L67.0244 53.936C67.1809 53.9672 67.2944 54.1058 67.2944 54.2653V55.8823C67.2944 56.0418 67.1809 56.1803 67.0244 56.2117L64.0609 56.8043C63.7461 56.8673 63.4935 57.1016 63.407 57.4105C63.2213 58.0741 62.956 58.7143 62.6185 59.3135C62.4609 59.5933 62.4739 59.9379 62.6519 60.2049L64.3286 62.7198C64.417 62.8526 64.3994 63.0309 64.2866 63.1437L63.1433 64.287C63.0306 64.3998 62.8523 64.4174 62.7194 64.329L60.2045 62.6523C59.9375 62.4743 59.5928 62.4613 59.3131 62.6189C58.7138 62.9564 58.0737 63.2218 57.4101 63.4074C57.101 63.4939 56.8668 63.7465 56.8039 64.0613L56.2113 67.0246C56.18 67.1811 56.0415 67.2946 55.8819 67.2946H54.2649C54.1055 67.2946 53.9669 67.1811 53.9356 67.0246L53.3429 64.0611C53.28 63.7463 53.0456 63.4937 52.7367 63.4072C52.0731 63.2215 51.4329 62.9562 50.8337 62.6187C50.5539 62.4611 50.2093 62.4741 49.9423 62.6521L47.4274 64.3288C47.2946 64.4172 47.1164 64.3997 47.0035 64.2868L45.8602 63.1435C45.7475 63.0306 45.7299 62.8524 45.8183 62.7196L47.4949 60.2047C47.673 59.9376 47.686 59.5931 47.5283 59.3133C47.1908 58.714 46.9255 58.0739 46.7399 57.4103C46.6534 57.1012 46.4008 56.8669 46.086 56.8041L43.1226 56.2115C42.9662 56.1802 42.8526 56.0417 42.8526 55.8821V54.2651C42.8526 54.1057 42.9662 53.9671 43.1226 53.9358L43.304 53.8995C43.7657 53.8071 44.0653 53.3579 43.9728 52.8962C43.8804 52.4344 43.4317 52.1354 42.9694 52.2274L42.7879 52.2637C41.8374 52.4539 41.1473 53.2957 41.1473 54.2652V55.8822C41.1473 56.8517 41.8374 57.6935 42.7882 57.8837L45.2537 58.3767C45.4039 58.8236 45.5848 59.2599 45.7943 59.6817L44.3994 61.774C43.8615 62.5808 43.9688 63.664 44.6544 64.3495L45.7977 65.4928C46.4834 66.1785 47.5665 66.2856 48.3733 65.7478L50.4655 64.3529C50.8873 64.5626 51.3236 64.7435 51.7705 64.8935L52.2636 67.3591C52.4539 68.3099 53.2957 69 54.2653 69H55.8822C56.8517 69 57.6935 68.3099 57.8837 67.3591L58.3767 64.8935C58.8236 64.7434 59.2599 64.5625 59.6817 64.3528L61.774 65.7477C62.5808 66.2855 63.664 66.1784 64.3496 65.4927L65.4928 64.3494C66.1785 63.6638 66.2856 62.5806 65.7479 61.7739L64.3529 59.6816C64.5626 59.2598 64.7435 58.8235 64.8936 58.3766L67.3591 57.8836C68.3098 57.6934 68.9999 56.8517 68.9999 55.8821V54.2651C69 53.2957 68.3099 52.4539 67.3591 52.2638Z" fill="#333333" stroke="white" stroke-width="0.4" mask="url(#path-5-inside-2)"/>
<path d="M57.0092 57.5835L57.0092 57.5835C57.3382 57.3293 57.8109 57.39 58.0651 57.719C58.3192 58.048 58.2585 58.5206 57.9296 58.7748C57.1051 59.4118 56.1179 59.7484 55.0736 59.7484C52.496 59.7484 50.3988 57.6512 50.3988 55.0736C50.3988 52.496 52.496 50.3988 55.0736 50.3988C57.6512 50.3988 59.7484 52.496 59.7484 55.0736C59.7484 55.4892 59.4114 55.8262 58.9958 55.8262C58.5802 55.8262 58.2432 55.4893 58.2432 55.0736C58.2432 53.3258 56.8215 51.9042 55.0737 51.9042C53.3259 51.9042 51.9043 53.3257 51.9042 55.0736C51.9042 56.8214 53.3258 58.2431 55.0736 58.2431C55.7811 58.2431 56.4508 58.0148 57.0092 57.5835Z" fill="#333333" stroke="white" stroke-width="0.2"/>
<path d="M35.7475 30.6526C38.5565 30.6526 40.8422 32.9382 40.8422 35.7473C40.8422 38.5563 38.5566 40.8419 35.7475 40.8419C32.9384 40.8419 30.6529 38.5564 30.6529 35.7473C30.6529 32.9383 32.9384 30.6526 35.7475 30.6526ZM35.7475 32.1578C33.7683 32.1578 32.1581 33.7681 32.1581 35.7473C32.1581 37.7264 33.7681 39.3367 35.7475 39.3367C37.7268 39.3367 39.3369 37.7265 39.3369 35.7473C39.3369 33.7681 37.7267 32.1578 35.7475 32.1578Z" fill="#333333" stroke="white" stroke-width="0.2"/>
</svg>
