<svg width="84" height="84" viewBox="0 0 84 84" fill="none" xmlns="http://www.w3.org/2000/svg">
<circle cx="42" cy="42" r="42" fill="white"/>
<g clip-path="url(#clip0)">
<mask id="path-2-inside-1" fill="white">
<path d="M70.0088 32.667L56.9171 20.0733C56.2947 19.4755 55.4737 19.158 54.6089 19.1744C53.7443 19.1924 52.9404 19.5446 52.3453 20.1656L48.0182 24.675C47.4412 25.2822 47.4636 26.2444 48.0645 26.817L48.417 27.1561L46.641 28.5747C46.5967 28.5724 46.5465 28.5701 46.4891 28.5682C43.7157 28.482 41.6564 28.9414 40.3689 29.9359L40.1646 30.094L35.2853 27.6901L35.9323 27.0676C36.2259 26.7881 36.3925 26.4103 36.4014 26.0037C36.4103 25.5968 36.2599 25.2114 35.979 24.9196L31.6553 20.4135C31.06 19.792 30.256 19.44 29.3915 19.4218C28.5224 19.4009 27.7054 19.7228 27.0826 20.3212L13.9918 32.9141C12.7066 34.1484 12.665 36.2007 13.8997 37.4896L18.2245 41.9966C18.5209 42.3048 18.9183 42.4601 19.3171 42.4601C19.6949 42.4601 20.074 42.3206 20.3692 42.0395L20.8821 41.546C21.2448 43.8545 21.8683 46.1851 23.3378 47.8288L23.1557 48.0261C21.6028 49.7118 22.0858 51.9607 23.3289 53.2211C24.014 53.916 24.847 54.2781 25.6861 54.3043C25.574 55.3809 26.0673 56.4582 26.8585 57.2084C27.5527 57.8667 28.481 58.2886 29.4252 58.2885C29.6599 58.2885 29.8957 58.2614 30.1291 58.2064C30.2619 58.9702 30.6604 59.6966 31.2024 60.24C31.8533 60.8927 32.7694 61.3477 33.745 61.3477C33.8448 61.3477 33.9453 61.3427 34.0461 61.333C34.0591 61.5204 34.0882 61.7111 34.1357 61.904C34.4669 63.2507 35.558 64.3831 36.8508 64.7217C37.0667 64.7782 37.345 64.8264 37.6663 64.8264C38.4173 64.8264 39.4027 64.5631 40.3738 63.5279L41.3256 62.5147L42.7176 63.5849C43.6285 64.2853 44.532 64.5711 45.3431 64.5711C46.3617 64.5711 47.2348 64.1204 47.794 63.474C48.3255 62.8596 48.6418 61.9877 48.5246 61.0554C49.5944 61.1099 50.6035 60.6974 51.2552 60.0102C51.7374 59.5017 52.0521 58.8091 52.0465 58.0498C53.155 58.1665 54.1228 57.6933 54.7214 56.9834C55.4108 56.1657 55.7189 54.9473 55.3273 53.7909C56.3504 53.5701 57.2881 52.9227 57.8865 51.9492C58.5581 50.8564 58.8056 49.2274 57.7783 47.6181C59.3165 46.7701 61.3319 45.0773 63.5598 41.7237L63.6341 41.795C63.9274 42.0742 64.3047 42.213 64.6817 42.213C65.0808 42.213 65.4792 42.0574 65.7764 41.7484L70.1011 37.2417C71.3351 35.9531 71.2935 33.9008 70.0088 32.667ZM24.5478 52.0189C23.8648 51.3263 23.532 50.1445 24.4143 49.1868L25.9012 47.5761C26.5094 46.916 27.1747 46.6459 27.8261 46.7949C28.5092 46.9512 29.1179 47.5495 29.3406 48.2836C29.448 48.6374 29.5443 49.3199 28.9829 49.9149C28.9822 49.9156 28.9817 49.9164 28.981 49.917L26.8962 52.1304C26.0187 52.9141 25.108 52.5867 24.5478 52.0189ZM30.4947 56.0767C29.6169 56.9972 28.5365 56.4402 28.0365 55.9659C27.9067 55.8428 26.7964 54.7326 27.7854 53.6839C27.7855 53.6838 27.7856 53.6836 27.7857 53.6835L31.5611 49.6751C32.0302 49.1767 32.5126 49.033 32.913 49.033C33.0618 49.033 33.1993 49.0529 33.3204 49.0817C33.994 49.2421 34.5733 49.7783 34.762 50.416C34.9377 51.01 34.7543 51.6137 34.2317 52.1617L33.4351 52.9964C33.3946 53.0369 33.3548 53.0796 33.3151 53.1221L30.4947 56.0767ZM34.9452 59.073C34.9379 59.0792 34.9302 59.0847 34.9231 59.0911C34.9083 59.1046 34.8949 59.119 34.8804 59.1327C33.7063 60.2101 32.6217 59.2388 32.4145 59.0311C31.9276 58.5428 31.4496 57.5582 32.1282 56.8472C32.1358 56.8393 32.1422 56.8308 32.1494 56.8228L34.4557 54.4064C34.4688 54.3933 34.4821 54.3807 34.4946 54.3666C34.5026 54.3574 34.5109 54.3492 34.519 54.3401L34.6681 54.1839C35.242 53.6159 35.8688 53.3916 36.4933 53.5371C37.1811 53.697 37.7731 54.2817 37.9664 54.992C38.0859 55.4315 38.0938 56.0832 37.4523 56.6927L37.1708 56.96C37.1638 56.9662 37.1567 56.9717 37.1496 56.978C37.1314 56.9943 37.1145 57.0116 37.098 57.0292L34.9452 59.073ZM40.3458 61.057L39.1254 62.356C38.5297 62.9907 37.9098 63.2288 37.2844 63.0654C36.6031 62.8868 35.978 62.2265 35.798 61.4951C35.7191 61.1748 35.7015 60.7276 36.0446 60.3881C36.0603 60.3736 36.0762 60.36 36.0919 60.345L38.3122 58.2371C38.9809 57.6603 39.9199 57.9405 40.4704 58.5044C40.7422 58.7827 41.5363 59.7888 40.3458 61.057ZM56.4276 51.0526C55.9937 51.7584 55.0855 52.3236 54.1374 52.1183L50.8721 49.0789C50.5259 48.7567 49.9843 48.7762 49.6621 49.1223C49.3401 49.4683 49.3594 50.01 49.7055 50.3322L53.1276 53.5176C53.1309 53.5206 53.1344 53.5231 53.1377 53.5261C53.1392 53.5274 53.1402 53.529 53.1417 53.5303C53.986 54.2821 53.917 55.2814 53.4123 55.8798C52.8395 56.5592 51.9435 56.525 51.0122 55.7912L47.6169 52.6307C47.2708 52.3084 46.7292 52.328 46.407 52.6741C46.0849 53.0202 46.1043 53.5619 46.4504 53.884L49.8478 57.0466C50.4378 57.6879 50.497 58.3215 50.0126 58.8323C49.4367 59.4395 48.2885 59.6353 47.295 58.8018C47.2825 58.7914 47.2694 58.7823 47.2565 58.7727L45.6967 57.3231C45.3504 57.0013 44.8087 57.0211 44.4869 57.3675C44.165 57.7138 44.1849 58.2556 44.5312 58.5774L46.2193 60.1462C47.0685 61.0262 46.9083 61.8808 46.4989 62.3541C45.9869 62.9455 44.942 63.1358 43.7608 62.228L42.3534 61.1459C43.0584 59.6976 42.6116 58.2467 41.6953 57.3084C41.1598 56.7604 40.4249 56.3605 39.6436 56.2388C39.7794 55.6953 39.7754 55.1196 39.6184 54.5429C39.2589 53.2221 38.1845 52.1728 36.8811 51.8698C36.7194 51.8322 36.5573 51.8071 36.3953 51.794C36.5787 51.186 36.587 50.5497 36.4037 49.9305C36.0412 48.7054 34.9864 47.7187 33.7168 47.4165C32.7697 47.1914 31.821 47.3721 31.0124 47.9106C31.0014 47.8694 30.9914 47.8282 30.979 47.787C30.5775 46.4641 29.4898 45.4198 28.208 45.1265C26.9419 44.8369 25.6757 45.2948 24.6426 46.4159L24.5052 46.5647C23.2998 45.1309 22.7675 42.9107 22.4055 40.0811L26.0159 36.608C26.3567 36.2802 26.3672 35.7383 26.0394 35.3976C25.7117 35.0568 25.1698 35.0463 24.8289 35.3741L20.9545 39.1012C20.9245 39.1263 20.8965 39.1534 20.8702 39.1823L19.3238 40.6699L15.1355 36.3053C14.5535 35.6978 14.5726 34.7307 15.1782 34.149L28.269 21.5556C28.5613 21.2749 28.9483 21.1247 29.3558 21.1335C29.7627 21.142 30.1402 21.307 30.4195 21.5983L34.6091 25.9644L27.5384 32.7666C27.1977 33.0944 27.1871 33.6364 27.515 33.977C27.8427 34.3178 28.3846 34.3282 28.7254 34.0005L33.973 28.9521L38.657 31.2596L35.3479 33.8186C31.3805 36.8884 32.5759 39.6514 33.0369 40.425C33.8231 41.745 35.2845 42.5071 36.7751 42.5071C37.3563 42.5071 37.9419 42.3912 38.4937 42.1474C38.5266 42.1329 38.5585 42.1164 38.5893 42.0978L42.0642 40.0053L46.7904 38.9259L55.8253 47.9038C57.2295 49.3452 56.7146 50.5857 56.4276 51.0526ZM68.8651 36.0566L64.6761 40.422L64.0339 39.8068C64.0098 39.7805 63.9838 39.7557 63.9561 39.7323L58.0559 34.0802C57.7142 33.7528 57.1726 33.7649 56.8454 34.106C56.5184 34.4475 56.53 34.9894 56.8713 35.3164L62.3017 40.5187C59.915 44.1865 57.8705 45.6803 56.6263 46.2863L47.6628 37.3792C47.6604 37.3768 47.6579 37.375 47.6556 37.3726C47.6427 37.36 47.6292 37.3483 47.6155 37.3366C47.6072 37.3295 47.599 37.3222 47.5905 37.3154C47.5781 37.3055 47.5651 37.2965 47.5521 37.2873C47.5418 37.2801 47.5316 37.2725 47.5211 37.2657C47.5093 37.2581 47.497 37.2514 47.4849 37.2444C47.4728 37.2375 47.461 37.2302 47.4486 37.224C47.4359 37.2175 47.4229 37.212 47.4099 37.2062C47.3979 37.2008 47.3861 37.195 47.3738 37.1902C47.358 37.184 47.3418 37.1788 47.3255 37.1735C47.316 37.1704 47.3066 37.1668 47.2969 37.1639C47.2771 37.1582 47.2569 37.1538 47.2367 37.1494C47.2303 37.1481 47.2241 37.1464 47.2179 37.1451C47.1966 37.1411 47.1748 37.1383 47.1532 37.136C47.1475 37.1354 47.142 37.1344 47.1363 37.1338C47.1166 37.132 47.0966 37.1315 47.0766 37.1312C47.0684 37.1311 47.0603 37.1305 47.0521 37.1305C47.0357 37.1306 47.0192 37.1319 47.0026 37.133C46.9904 37.1338 46.9783 37.1344 46.966 37.1357C46.9531 37.1372 46.9402 37.1394 46.9273 37.1414C46.9112 37.1439 46.8952 37.1464 46.8794 37.1499C46.8759 37.1507 46.8723 37.1509 46.8688 37.1517L41.5495 38.3667C41.4609 38.3869 41.3762 38.421 41.2985 38.4678L37.7561 40.6009C36.6122 41.0765 35.1354 40.6023 34.5077 39.5486C33.7634 38.2993 34.4692 36.6632 36.3955 35.1728L40.7925 31.7724C40.8002 31.7664 40.8082 31.7609 40.8156 31.7545L41.416 31.2902C42.3533 30.566 44.1371 30.207 46.4354 30.2792C46.5104 30.2815 46.5701 30.2851 46.6192 30.2878C47.1192 30.3176 47.3192 30.2254 47.7041 29.9167L49.6618 28.353L54.0551 32.5797C54.3958 32.9075 54.9377 32.8969 55.2656 32.5563C55.5934 32.2156 55.5829 31.6737 55.2422 31.3458L49.3914 25.7168L53.5814 21.3502C53.8602 21.0592 54.2378 20.8944 54.6448 20.8859C54.6558 20.8857 54.6667 20.8855 54.6778 20.8855C55.074 20.8855 55.4471 21.0347 55.7309 21.3074L68.8226 33.9012C69.4275 34.4826 69.4466 35.4497 68.8651 36.0566Z"/>
</mask>
<path d="M70.0088 32.667L56.9171 20.0733C56.2947 19.4755 55.4737 19.158 54.6089 19.1744C53.7443 19.1924 52.9404 19.5446 52.3453 20.1656L48.0182 24.675C47.4412 25.2822 47.4636 26.2444 48.0645 26.817L48.417 27.1561L46.641 28.5747C46.5967 28.5724 46.5465 28.5701 46.4891 28.5682C43.7157 28.482 41.6564 28.9414 40.3689 29.9359L40.1646 30.094L35.2853 27.6901L35.9323 27.0676C36.2259 26.7881 36.3925 26.4103 36.4014 26.0037C36.4103 25.5968 36.2599 25.2114 35.979 24.9196L31.6553 20.4135C31.06 19.792 30.256 19.44 29.3915 19.4218C28.5224 19.4009 27.7054 19.7228 27.0826 20.3212L13.9918 32.9141C12.7066 34.1484 12.665 36.2007 13.8997 37.4896L18.2245 41.9966C18.5209 42.3048 18.9183 42.4601 19.3171 42.4601C19.6949 42.4601 20.074 42.3206 20.3692 42.0395L20.8821 41.546C21.2448 43.8545 21.8683 46.1851 23.3378 47.8288L23.1557 48.0261C21.6028 49.7118 22.0858 51.9607 23.3289 53.2211C24.014 53.916 24.847 54.2781 25.6861 54.3043C25.574 55.3809 26.0673 56.4582 26.8585 57.2084C27.5527 57.8667 28.481 58.2886 29.4252 58.2885C29.6599 58.2885 29.8957 58.2614 30.1291 58.2064C30.2619 58.9702 30.6604 59.6966 31.2024 60.24C31.8533 60.8927 32.7694 61.3477 33.745 61.3477C33.8448 61.3477 33.9453 61.3427 34.0461 61.333C34.0591 61.5204 34.0882 61.7111 34.1357 61.904C34.4669 63.2507 35.558 64.3831 36.8508 64.7217C37.0667 64.7782 37.345 64.8264 37.6663 64.8264C38.4173 64.8264 39.4027 64.5631 40.3738 63.5279L41.3256 62.5147L42.7176 63.5849C43.6285 64.2853 44.532 64.5711 45.3431 64.5711C46.3617 64.5711 47.2348 64.1204 47.794 63.474C48.3255 62.8596 48.6418 61.9877 48.5246 61.0554C49.5944 61.1099 50.6035 60.6974 51.2552 60.0102C51.7374 59.5017 52.0521 58.8091 52.0465 58.0498C53.155 58.1665 54.1228 57.6933 54.7214 56.9834C55.4108 56.1657 55.7189 54.9473 55.3273 53.7909C56.3504 53.5701 57.2881 52.9227 57.8865 51.9492C58.5581 50.8564 58.8056 49.2274 57.7783 47.6181C59.3165 46.7701 61.3319 45.0773 63.5598 41.7237L63.6341 41.795C63.9274 42.0742 64.3047 42.213 64.6817 42.213C65.0808 42.213 65.4792 42.0574 65.7764 41.7484L70.1011 37.2417C71.3351 35.9531 71.2935 33.9008 70.0088 32.667ZM24.5478 52.0189C23.8648 51.3263 23.532 50.1445 24.4143 49.1868L25.9012 47.5761C26.5094 46.916 27.1747 46.6459 27.8261 46.7949C28.5092 46.9512 29.1179 47.5495 29.3406 48.2836C29.448 48.6374 29.5443 49.3199 28.9829 49.9149C28.9822 49.9156 28.9817 49.9164 28.981 49.917L26.8962 52.1304C26.0187 52.9141 25.108 52.5867 24.5478 52.0189ZM30.4947 56.0767C29.6169 56.9972 28.5365 56.4402 28.0365 55.9659C27.9067 55.8428 26.7964 54.7326 27.7854 53.6839C27.7855 53.6838 27.7856 53.6836 27.7857 53.6835L31.5611 49.6751C32.0302 49.1767 32.5126 49.033 32.913 49.033C33.0618 49.033 33.1993 49.0529 33.3204 49.0817C33.994 49.2421 34.5733 49.7783 34.762 50.416C34.9377 51.01 34.7543 51.6137 34.2317 52.1617L33.4351 52.9964C33.3946 53.0369 33.3548 53.0796 33.3151 53.1221L30.4947 56.0767ZM34.9452 59.073C34.9379 59.0792 34.9302 59.0847 34.9231 59.0911C34.9083 59.1046 34.8949 59.119 34.8804 59.1327C33.7063 60.2101 32.6217 59.2388 32.4145 59.0311C31.9276 58.5428 31.4496 57.5582 32.1282 56.8472C32.1358 56.8393 32.1422 56.8308 32.1494 56.8228L34.4557 54.4064C34.4688 54.3933 34.4821 54.3807 34.4946 54.3666C34.5026 54.3574 34.5109 54.3492 34.519 54.3401L34.6681 54.1839C35.242 53.6159 35.8688 53.3916 36.4933 53.5371C37.1811 53.697 37.7731 54.2817 37.9664 54.992C38.0859 55.4315 38.0938 56.0832 37.4523 56.6927L37.1708 56.96C37.1638 56.9662 37.1567 56.9717 37.1496 56.978C37.1314 56.9943 37.1145 57.0116 37.098 57.0292L34.9452 59.073ZM40.3458 61.057L39.1254 62.356C38.5297 62.9907 37.9098 63.2288 37.2844 63.0654C36.6031 62.8868 35.978 62.2265 35.798 61.4951C35.7191 61.1748 35.7015 60.7276 36.0446 60.3881C36.0603 60.3736 36.0762 60.36 36.0919 60.345L38.3122 58.2371C38.9809 57.6603 39.9199 57.9405 40.4704 58.5044C40.7422 58.7827 41.5363 59.7888 40.3458 61.057ZM56.4276 51.0526C55.9937 51.7584 55.0855 52.3236 54.1374 52.1183L50.8721 49.0789C50.5259 48.7567 49.9843 48.7762 49.6621 49.1223C49.3401 49.4683 49.3594 50.01 49.7055 50.3322L53.1276 53.5176C53.1309 53.5206 53.1344 53.5231 53.1377 53.5261C53.1392 53.5274 53.1402 53.529 53.1417 53.5303C53.986 54.2821 53.917 55.2814 53.4123 55.8798C52.8395 56.5592 51.9435 56.525 51.0122 55.7912L47.6169 52.6307C47.2708 52.3084 46.7292 52.328 46.407 52.6741C46.0849 53.0202 46.1043 53.5619 46.4504 53.884L49.8478 57.0466C50.4378 57.6879 50.497 58.3215 50.0126 58.8323C49.4367 59.4395 48.2885 59.6353 47.295 58.8018C47.2825 58.7914 47.2694 58.7823 47.2565 58.7727L45.6967 57.3231C45.3504 57.0013 44.8087 57.0211 44.4869 57.3675C44.165 57.7138 44.1849 58.2556 44.5312 58.5774L46.2193 60.1462C47.0685 61.0262 46.9083 61.8808 46.4989 62.3541C45.9869 62.9455 44.942 63.1358 43.7608 62.228L42.3534 61.1459C43.0584 59.6976 42.6116 58.2467 41.6953 57.3084C41.1598 56.7604 40.4249 56.3605 39.6436 56.2388C39.7794 55.6953 39.7754 55.1196 39.6184 54.5429C39.2589 53.2221 38.1845 52.1728 36.8811 51.8698C36.7194 51.8322 36.5573 51.8071 36.3953 51.794C36.5787 51.186 36.587 50.5497 36.4037 49.9305C36.0412 48.7054 34.9864 47.7187 33.7168 47.4165C32.7697 47.1914 31.821 47.3721 31.0124 47.9106C31.0014 47.8694 30.9914 47.8282 30.979 47.787C30.5775 46.4641 29.4898 45.4198 28.208 45.1265C26.9419 44.8369 25.6757 45.2948 24.6426 46.4159L24.5052 46.5647C23.2998 45.1309 22.7675 42.9107 22.4055 40.0811L26.0159 36.608C26.3567 36.2802 26.3672 35.7383 26.0394 35.3976C25.7117 35.0568 25.1698 35.0463 24.8289 35.3741L20.9545 39.1012C20.9245 39.1263 20.8965 39.1534 20.8702 39.1823L19.3238 40.6699L15.1355 36.3053C14.5535 35.6978 14.5726 34.7307 15.1782 34.149L28.269 21.5556C28.5613 21.2749 28.9483 21.1247 29.3558 21.1335C29.7627 21.142 30.1402 21.307 30.4195 21.5983L34.6091 25.9644L27.5384 32.7666C27.1977 33.0944 27.1871 33.6364 27.515 33.977C27.8427 34.3178 28.3846 34.3282 28.7254 34.0005L33.973 28.9521L38.657 31.2596L35.3479 33.8186C31.3805 36.8884 32.5759 39.6514 33.0369 40.425C33.8231 41.745 35.2845 42.5071 36.7751 42.5071C37.3563 42.5071 37.9419 42.3912 38.4937 42.1474C38.5266 42.1329 38.5585 42.1164 38.5893 42.0978L42.0642 40.0053L46.7904 38.9259L55.8253 47.9038C57.2295 49.3452 56.7146 50.5857 56.4276 51.0526ZM68.8651 36.0566L64.6761 40.422L64.0339 39.8068C64.0098 39.7805 63.9838 39.7557 63.9561 39.7323L58.0559 34.0802C57.7142 33.7528 57.1726 33.7649 56.8454 34.106C56.5184 34.4475 56.53 34.9894 56.8713 35.3164L62.3017 40.5187C59.915 44.1865 57.8705 45.6803 56.6263 46.2863L47.6628 37.3792C47.6604 37.3768 47.6579 37.375 47.6556 37.3726C47.6427 37.36 47.6292 37.3483 47.6155 37.3366C47.6072 37.3295 47.599 37.3222 47.5905 37.3154C47.5781 37.3055 47.5651 37.2965 47.5521 37.2873C47.5418 37.2801 47.5316 37.2725 47.5211 37.2657C47.5093 37.2581 47.497 37.2514 47.4849 37.2444C47.4728 37.2375 47.461 37.2302 47.4486 37.224C47.4359 37.2175 47.4229 37.212 47.4099 37.2062C47.3979 37.2008 47.3861 37.195 47.3738 37.1902C47.358 37.184 47.3418 37.1788 47.3255 37.1735C47.316 37.1704 47.3066 37.1668 47.2969 37.1639C47.2771 37.1582 47.2569 37.1538 47.2367 37.1494C47.2303 37.1481 47.2241 37.1464 47.2179 37.1451C47.1966 37.1411 47.1748 37.1383 47.1532 37.136C47.1475 37.1354 47.142 37.1344 47.1363 37.1338C47.1166 37.132 47.0966 37.1315 47.0766 37.1312C47.0684 37.1311 47.0603 37.1305 47.0521 37.1305C47.0357 37.1306 47.0192 37.1319 47.0026 37.133C46.9904 37.1338 46.9783 37.1344 46.966 37.1357C46.9531 37.1372 46.9402 37.1394 46.9273 37.1414C46.9112 37.1439 46.8952 37.1464 46.8794 37.1499C46.8759 37.1507 46.8723 37.1509 46.8688 37.1517L41.5495 38.3667C41.4609 38.3869 41.3762 38.421 41.2985 38.4678L37.7561 40.6009C36.6122 41.0765 35.1354 40.6023 34.5077 39.5486C33.7634 38.2993 34.4692 36.6632 36.3955 35.1728L40.7925 31.7724C40.8002 31.7664 40.8082 31.7609 40.8156 31.7545L41.416 31.2902C42.3533 30.566 44.1371 30.207 46.4354 30.2792C46.5104 30.2815 46.5701 30.2851 46.6192 30.2878C47.1192 30.3176 47.3192 30.2254 47.7041 29.9167L49.6618 28.353L54.0551 32.5797C54.3958 32.9075 54.9377 32.8969 55.2656 32.5563C55.5934 32.2156 55.5829 31.6737 55.2422 31.3458L49.3914 25.7168L53.5814 21.3502C53.8602 21.0592 54.2378 20.8944 54.6448 20.8859C54.6558 20.8857 54.6667 20.8855 54.6778 20.8855C55.074 20.8855 55.4471 21.0347 55.7309 21.3074L68.8226 33.9012C69.4275 34.4826 69.4466 35.4497 68.8651 36.0566Z" fill="#333333" stroke="white" stroke-width="0.2" mask="url(#path-2-inside-1)"/>
</g>
<defs>
<clipPath id="clip0">
<rect width="58" height="58" fill="white" transform="translate(13 13)"/>
</clipPath>
</defs>
</svg>
