<svg width="84" height="84" viewBox="0 0 84 84" fill="none" xmlns="http://www.w3.org/2000/svg">
<circle cx="42" cy="42" r="42" fill="white"/>
<path d="M32.8545 58.4861C32.8545 58.1045 33.1639 57.7951 33.5455 57.7951C33.9272 57.7951 34.2366 58.1045 34.2366 58.4861V61.8678C34.2366 62.2494 33.9272 62.5588 33.5455 62.5588C33.1639 62.5588 32.8545 62.2494 32.8545 61.8678V58.4861Z" fill="#333333" stroke="white" stroke-width="0.2"/>
<path d="M49.7634 58.4861C49.7634 58.1045 50.0728 57.7951 50.4544 57.7951C50.836 57.7951 51.1454 58.1045 51.1454 58.4861V61.8678C51.1454 62.2494 50.836 62.5588 50.4544 62.5588C50.0728 62.5588 49.7634 62.2494 49.7634 61.8678V58.4861Z" fill="#333333" stroke="white" stroke-width="0.2"/>
<path d="M27.0908 40.9591L27.0908 40.9591C27.4322 41.1298 27.5705 41.5448 27.3998 41.8862C27.2788 42.1281 27.0349 42.2683 26.7811 42.2683C26.6774 42.2683 26.5721 42.245 26.4728 42.1952L26.4728 42.1952C25.8328 41.8753 24.8607 41.6835 23.9468 41.5709C23.0297 41.4579 22.1576 41.423 21.7089 41.4228H21.7089C21.3273 41.4226 21.0181 41.1131 21.0182 40.7316C21.0182 40.3499 21.3275 40.0407 21.7091 40.0407C21.7801 40.0407 22.6737 40.0433 23.7776 40.1603C24.8848 40.2775 26.1896 40.5085 27.0908 40.9591Z" fill="#333333" stroke="white" stroke-width="0.2"/>
<path d="M18.4818 56.7953C18.4818 56.4137 18.7912 56.1043 19.1728 56.1043C19.5545 56.1043 19.8638 56.4138 19.8638 56.7953V61.8681C19.8638 62.2497 19.5544 62.5591 19.1728 62.5591C18.7912 62.5591 18.4818 62.2497 18.4818 61.8681V56.7953Z" fill="#333333" stroke="white" stroke-width="0.2"/>
<mask id="path-6-inside-1" fill="white">
<path d="M67.1605 53.05L63.9572 51.4486C63.9387 51.4393 63.9271 51.4206 63.9271 51.3999L63.9273 49.7899C65.2423 48.8845 66.173 47.453 66.4059 45.7731C66.9974 44.751 67.309 43.5966 67.309 42.4227C67.309 40.2337 66.255 38.2866 64.6281 37.0612C64.7235 36.7437 64.7727 36.4161 64.7727 36.0818C64.7727 34.014 62.9008 32.3317 60.6 32.3317C58.2992 32.3317 56.4272 34.014 56.4272 36.0818C56.4272 36.4165 56.4759 36.7442 56.5713 37.0615C55.6013 37.7922 54.8364 38.7803 54.3759 39.9225C54.1799 37.9957 53.9757 35.7179 53.7798 33.0645C53.5214 29.5636 52.2624 26.6071 50.1389 24.5148C48.0315 22.4383 45.2171 21.3408 41.9999 21.3408C38.7828 21.3408 35.9684 22.4383 33.8613 24.5147C31.7378 26.6071 30.4787 29.5636 30.2203 33.0644C30.1516 33.9939 30.082 34.8749 30.0121 35.7134H22.5546C19.7875 35.7134 17.5363 37.9647 17.5363 40.7317V40.7789C17.5363 41.4233 17.6886 42.0687 17.9768 42.645L18.3817 43.4549V44.7464C18.3817 46.7931 19.3903 48.6296 20.9181 49.7349V50.8773C20.9181 51.0238 20.8196 51.1541 20.6788 51.1944L17.4132 52.1275C15.9924 52.5334 15 53.849 15 55.3267V61.868C15 62.3048 15.3542 62.659 15.791 62.659C16.2279 62.659 16.582 62.3048 16.582 61.868V55.3267C16.582 54.5515 17.1026 53.8614 17.8479 53.6485L21.1136 52.7154C21.2314 52.6818 21.3433 52.6361 21.4498 52.5819L23.4545 54.5865V61.868C23.4545 62.3048 23.8086 62.659 24.2455 62.659C24.6823 62.659 25.0365 62.3048 25.0365 61.868V54.5865L27.0552 52.5678C27.3249 52.7002 27.5938 52.7772 27.7908 52.8335L28.5927 53.0626C27.506 53.8353 26.8363 55.0955 26.8363 56.4621V61.8677C26.8363 62.3046 27.1905 62.6588 27.6273 62.6588C28.0642 62.6588 28.4183 62.3046 28.4183 61.8677V56.4621C28.4183 55.4367 29.0245 54.5065 29.9625 54.0922L34.485 52.0947C35.9022 54.9328 38.7981 56.7407 42.0001 56.7407C45.2139 56.7407 48.1001 54.9368 49.5165 52.0953L54.0376 54.0922C54.9756 54.5065 55.5818 55.4367 55.5818 56.4621V61.8677C55.5818 62.3046 55.9359 62.6588 56.3728 62.6588C56.8096 62.6588 57.1638 62.3046 57.1638 61.8677V56.4621C57.1638 55.4502 56.796 54.497 56.1648 53.7559L57.389 53.1439L58.3079 54.0172C58.9506 54.6281 59.7752 54.9333 60.6001 54.9333C61.4246 54.9333 62.2496 54.6279 62.8921 54.0172L63.811 53.144L66.4531 54.465C67.0483 54.7625 67.418 55.3608 67.418 56.0262V61.8679C67.418 62.3047 67.7721 62.6589 68.209 62.6589C68.6458 62.6589 69 62.3047 69 61.8679V56.0262C68.9999 54.7578 68.2951 53.6174 67.1605 53.05ZM60.5999 33.9136C62.0283 33.9136 63.1906 34.8863 63.1906 36.0817C63.1906 36.1318 63.1866 36.1815 63.1826 36.2311C62.3871 35.898 61.5147 35.7134 60.5999 35.7134C59.6851 35.7134 58.8128 35.898 58.0176 36.231C58.0135 36.1814 58.0091 36.1318 58.0091 36.0817C58.0091 34.8863 59.1714 33.9136 60.5999 33.9136ZM24.2456 53.1403L22.4431 51.3379C22.4804 51.1894 22.5003 51.0349 22.5003 50.8772V50.5435C22.9979 50.7069 23.5227 50.8038 24.0658 50.82C24.1266 50.8219 24.1872 50.8228 24.2478 50.8228C24.8477 50.8228 25.4334 50.7322 25.9907 50.5593V50.8769C25.9907 51.0485 26.0083 51.2041 26.0396 51.3463L24.2456 53.1403ZM24.1132 49.2385C21.8252 49.1701 19.9638 47.1548 19.9638 44.7464V43.2682C19.9638 43.1454 19.9352 43.0242 19.8802 42.9144L19.3918 41.9376C19.2129 41.5796 19.1183 41.179 19.1183 40.7789V40.7317C19.1183 38.837 20.6599 37.2955 22.5546 37.2955H29.3727V40.5792C29.3727 41.1098 29.2473 41.6413 29.0099 42.1159L28.6107 42.9143C28.5558 43.0242 28.5272 43.1453 28.5272 43.268V44.9589C28.5272 46.1269 28.0654 47.2183 27.227 48.0319C26.3889 48.845 25.2824 49.274 24.1132 49.2385ZM30.7243 52.0263L28.2254 51.3123C27.5726 51.1259 27.5727 51.0531 27.5727 50.8771L27.5729 49.7873C27.8386 49.6032 28.0919 49.3972 28.3289 49.1672C28.4884 49.0125 28.6369 48.8497 28.7761 48.6809C28.9032 48.9387 29.098 49.1638 29.3497 49.3268C29.9838 49.7374 31.1804 50.4195 32.94 51.0476L30.7243 52.0263ZM41.9999 55.1588C39.4263 55.1588 37.0955 53.7202 35.9331 51.4553L37.0845 50.9467C37.9831 50.5498 38.5637 49.6587 38.5637 48.6764V46.7784C39.6265 47.2054 40.7862 47.4409 41.9999 47.4409C43.2137 47.4409 44.3733 47.2054 45.4362 46.7784V48.6764C45.4362 49.6587 46.0168 50.5499 46.9154 50.9467L48.0666 51.4552C46.9051 53.7226 44.5832 55.1588 41.9999 55.1588ZM48.859 50.0756L47.5546 49.4994C47.2288 49.3556 47.0182 49.0324 47.0182 48.6763V45.9568C49.5602 44.3075 51.2455 41.4446 51.2455 38.1953V36.7121C51.2455 35.7481 50.8357 34.8388 50.121 34.2174C48.5317 32.8351 44.9341 30.4229 38.6969 29.7992C38.2633 29.7557 37.8745 30.0728 37.8311 30.5076C37.7876 30.9424 38.1048 31.33 38.5395 31.3734C44.3408 31.9535 47.6353 34.1522 49.0829 35.4112C49.4519 35.732 49.6635 36.2063 49.6635 36.7121V38.1953C49.6635 42.4209 46.2257 45.8588 42.0001 45.8588C37.7745 45.8588 34.3366 42.4209 34.3366 38.1953V37.5336C34.3366 37.2297 34.5051 36.9512 34.7874 36.7887C35.7764 36.2193 37.0806 35.1644 37.6778 33.3728C37.816 32.9584 37.592 32.5104 37.1775 32.3722C36.7632 32.234 36.3151 32.458 36.1769 32.8725C35.7369 34.1926 34.7491 34.9852 33.9979 35.4177C33.231 35.8593 32.7545 36.6701 32.7545 37.5337V38.1954C32.7545 41.4448 34.4396 44.3077 36.9818 45.9569V48.6764C36.9818 49.0325 36.7712 49.3556 36.4454 49.4996L35.1409 50.0757C32.5932 49.3941 30.9608 48.4853 30.2095 47.9989C30.1945 47.9892 30.1861 47.9782 30.1903 47.9532C30.4662 46.3222 31.1752 41.6178 31.7981 33.1809C32.0278 30.068 33.1252 27.4608 34.9716 25.6415C36.7767 23.863 39.207 22.9228 41.9999 22.9228C44.7929 22.9228 47.2232 23.863 49.0283 25.6415C50.8747 27.4608 51.9721 30.0679 52.2019 33.1808C52.8247 41.6174 53.5337 46.322 53.8097 47.9531C53.8139 47.9782 53.8055 47.9892 53.7904 47.9989C53.0381 48.4859 51.4056 49.3942 48.859 50.0756ZM57.2725 51.3998C57.2725 51.4206 57.261 51.4392 57.2425 51.4485L54.7642 52.6877C54.7347 52.6738 54.7065 52.6583 54.6767 52.6452L51.0601 51.0478C52.8189 50.4199 54.0152 49.7381 54.6502 49.327C55.1956 48.9738 55.4781 48.3311 55.3696 47.6893C55.3637 47.6542 55.3572 47.6157 55.3509 47.5777C55.7958 48.4723 56.461 49.2311 57.2725 49.7899V51.3998ZM61.802 52.8705C61.1279 53.5114 60.0718 53.5113 59.3975 52.8705L58.6623 52.1719C58.7863 51.9395 58.8545 51.6758 58.8545 51.3998V50.558C59.4069 50.7294 59.9929 50.8227 60.5998 50.8227C61.2065 50.8227 61.7926 50.7294 62.3449 50.558L62.3448 51.3996C62.3448 51.6758 62.413 51.9395 62.5371 52.172L61.802 52.8705ZM60.5999 49.2405C58.4097 49.2405 56.5804 47.6005 56.3449 45.4256C56.3323 45.3091 56.294 45.1969 56.2326 45.0969C55.7354 44.2872 55.4727 43.3624 55.4727 42.4225C55.4727 39.5955 57.7727 37.2955 60.5999 37.2955C63.4269 37.2955 65.727 39.5955 65.727 42.4226C65.727 42.9676 65.6381 43.5074 65.4669 44.0227C63.2209 41.7409 59.2697 40.8466 59.0792 40.8046C58.8453 40.753 58.6004 40.8104 58.4135 40.9605C58.2267 41.1107 58.118 41.3374 58.118 41.5771C58.118 41.5822 58.0819 42.131 57.5042 42.7086C57.1953 43.0176 57.1953 43.5184 57.5042 43.8272C57.8132 44.1362 58.314 44.1362 58.6228 43.8272C59.0677 43.3824 59.3291 42.9309 59.4824 42.5496C60.8134 42.945 63.576 43.9436 64.8158 45.6964C64.4639 47.735 62.6979 49.2405 60.5999 49.2405Z"/>
</mask>
<path d="M67.1605 53.05L63.9572 51.4486C63.9387 51.4393 63.9271 51.4206 63.9271 51.3999L63.9273 49.7899C65.2423 48.8845 66.173 47.453 66.4059 45.7731C66.9974 44.751 67.309 43.5966 67.309 42.4227C67.309 40.2337 66.255 38.2866 64.6281 37.0612C64.7235 36.7437 64.7727 36.4161 64.7727 36.0818C64.7727 34.014 62.9008 32.3317 60.6 32.3317C58.2992 32.3317 56.4272 34.014 56.4272 36.0818C56.4272 36.4165 56.4759 36.7442 56.5713 37.0615C55.6013 37.7922 54.8364 38.7803 54.3759 39.9225C54.1799 37.9957 53.9757 35.7179 53.7798 33.0645C53.5214 29.5636 52.2624 26.6071 50.1389 24.5148C48.0315 22.4383 45.2171 21.3408 41.9999 21.3408C38.7828 21.3408 35.9684 22.4383 33.8613 24.5147C31.7378 26.6071 30.4787 29.5636 30.2203 33.0644C30.1516 33.9939 30.082 34.8749 30.0121 35.7134H22.5546C19.7875 35.7134 17.5363 37.9647 17.5363 40.7317V40.7789C17.5363 41.4233 17.6886 42.0687 17.9768 42.645L18.3817 43.4549V44.7464C18.3817 46.7931 19.3903 48.6296 20.9181 49.7349V50.8773C20.9181 51.0238 20.8196 51.1541 20.6788 51.1944L17.4132 52.1275C15.9924 52.5334 15 53.849 15 55.3267V61.868C15 62.3048 15.3542 62.659 15.791 62.659C16.2279 62.659 16.582 62.3048 16.582 61.868V55.3267C16.582 54.5515 17.1026 53.8614 17.8479 53.6485L21.1136 52.7154C21.2314 52.6818 21.3433 52.6361 21.4498 52.5819L23.4545 54.5865V61.868C23.4545 62.3048 23.8086 62.659 24.2455 62.659C24.6823 62.659 25.0365 62.3048 25.0365 61.868V54.5865L27.0552 52.5678C27.3249 52.7002 27.5938 52.7772 27.7908 52.8335L28.5927 53.0626C27.506 53.8353 26.8363 55.0955 26.8363 56.4621V61.8677C26.8363 62.3046 27.1905 62.6588 27.6273 62.6588C28.0642 62.6588 28.4183 62.3046 28.4183 61.8677V56.4621C28.4183 55.4367 29.0245 54.5065 29.9625 54.0922L34.485 52.0947C35.9022 54.9328 38.7981 56.7407 42.0001 56.7407C45.2139 56.7407 48.1001 54.9368 49.5165 52.0953L54.0376 54.0922C54.9756 54.5065 55.5818 55.4367 55.5818 56.4621V61.8677C55.5818 62.3046 55.9359 62.6588 56.3728 62.6588C56.8096 62.6588 57.1638 62.3046 57.1638 61.8677V56.4621C57.1638 55.4502 56.796 54.497 56.1648 53.7559L57.389 53.1439L58.3079 54.0172C58.9506 54.6281 59.7752 54.9333 60.6001 54.9333C61.4246 54.9333 62.2496 54.6279 62.8921 54.0172L63.811 53.144L66.4531 54.465C67.0483 54.7625 67.418 55.3608 67.418 56.0262V61.8679C67.418 62.3047 67.7721 62.6589 68.209 62.6589C68.6458 62.6589 69 62.3047 69 61.8679V56.0262C68.9999 54.7578 68.2951 53.6174 67.1605 53.05ZM60.5999 33.9136C62.0283 33.9136 63.1906 34.8863 63.1906 36.0817C63.1906 36.1318 63.1866 36.1815 63.1826 36.2311C62.3871 35.898 61.5147 35.7134 60.5999 35.7134C59.6851 35.7134 58.8128 35.898 58.0176 36.231C58.0135 36.1814 58.0091 36.1318 58.0091 36.0817C58.0091 34.8863 59.1714 33.9136 60.5999 33.9136ZM24.2456 53.1403L22.4431 51.3379C22.4804 51.1894 22.5003 51.0349 22.5003 50.8772V50.5435C22.9979 50.7069 23.5227 50.8038 24.0658 50.82C24.1266 50.8219 24.1872 50.8228 24.2478 50.8228C24.8477 50.8228 25.4334 50.7322 25.9907 50.5593V50.8769C25.9907 51.0485 26.0083 51.2041 26.0396 51.3463L24.2456 53.1403ZM24.1132 49.2385C21.8252 49.1701 19.9638 47.1548 19.9638 44.7464V43.2682C19.9638 43.1454 19.9352 43.0242 19.8802 42.9144L19.3918 41.9376C19.2129 41.5796 19.1183 41.179 19.1183 40.7789V40.7317C19.1183 38.837 20.6599 37.2955 22.5546 37.2955H29.3727V40.5792C29.3727 41.1098 29.2473 41.6413 29.0099 42.1159L28.6107 42.9143C28.5558 43.0242 28.5272 43.1453 28.5272 43.268V44.9589C28.5272 46.1269 28.0654 47.2183 27.227 48.0319C26.3889 48.845 25.2824 49.274 24.1132 49.2385ZM30.7243 52.0263L28.2254 51.3123C27.5726 51.1259 27.5727 51.0531 27.5727 50.8771L27.5729 49.7873C27.8386 49.6032 28.0919 49.3972 28.3289 49.1672C28.4884 49.0125 28.6369 48.8497 28.7761 48.6809C28.9032 48.9387 29.098 49.1638 29.3497 49.3268C29.9838 49.7374 31.1804 50.4195 32.94 51.0476L30.7243 52.0263ZM41.9999 55.1588C39.4263 55.1588 37.0955 53.7202 35.9331 51.4553L37.0845 50.9467C37.9831 50.5498 38.5637 49.6587 38.5637 48.6764V46.7784C39.6265 47.2054 40.7862 47.4409 41.9999 47.4409C43.2137 47.4409 44.3733 47.2054 45.4362 46.7784V48.6764C45.4362 49.6587 46.0168 50.5499 46.9154 50.9467L48.0666 51.4552C46.9051 53.7226 44.5832 55.1588 41.9999 55.1588ZM48.859 50.0756L47.5546 49.4994C47.2288 49.3556 47.0182 49.0324 47.0182 48.6763V45.9568C49.5602 44.3075 51.2455 41.4446 51.2455 38.1953V36.7121C51.2455 35.7481 50.8357 34.8388 50.121 34.2174C48.5317 32.8351 44.9341 30.4229 38.6969 29.7992C38.2633 29.7557 37.8745 30.0728 37.8311 30.5076C37.7876 30.9424 38.1048 31.33 38.5395 31.3734C44.3408 31.9535 47.6353 34.1522 49.0829 35.4112C49.4519 35.732 49.6635 36.2063 49.6635 36.7121V38.1953C49.6635 42.4209 46.2257 45.8588 42.0001 45.8588C37.7745 45.8588 34.3366 42.4209 34.3366 38.1953V37.5336C34.3366 37.2297 34.5051 36.9512 34.7874 36.7887C35.7764 36.2193 37.0806 35.1644 37.6778 33.3728C37.816 32.9584 37.592 32.5104 37.1775 32.3722C36.7632 32.234 36.3151 32.458 36.1769 32.8725C35.7369 34.1926 34.7491 34.9852 33.9979 35.4177C33.231 35.8593 32.7545 36.6701 32.7545 37.5337V38.1954C32.7545 41.4448 34.4396 44.3077 36.9818 45.9569V48.6764C36.9818 49.0325 36.7712 49.3556 36.4454 49.4996L35.1409 50.0757C32.5932 49.3941 30.9608 48.4853 30.2095 47.9989C30.1945 47.9892 30.1861 47.9782 30.1903 47.9532C30.4662 46.3222 31.1752 41.6178 31.7981 33.1809C32.0278 30.068 33.1252 27.4608 34.9716 25.6415C36.7767 23.863 39.207 22.9228 41.9999 22.9228C44.7929 22.9228 47.2232 23.863 49.0283 25.6415C50.8747 27.4608 51.9721 30.0679 52.2019 33.1808C52.8247 41.6174 53.5337 46.322 53.8097 47.9531C53.8139 47.9782 53.8055 47.9892 53.7904 47.9989C53.0381 48.4859 51.4056 49.3942 48.859 50.0756ZM57.2725 51.3998C57.2725 51.4206 57.261 51.4392 57.2425 51.4485L54.7642 52.6877C54.7347 52.6738 54.7065 52.6583 54.6767 52.6452L51.0601 51.0478C52.8189 50.4199 54.0152 49.7381 54.6502 49.327C55.1956 48.9738 55.4781 48.3311 55.3696 47.6893C55.3637 47.6542 55.3572 47.6157 55.3509 47.5777C55.7958 48.4723 56.461 49.2311 57.2725 49.7899V51.3998ZM61.802 52.8705C61.1279 53.5114 60.0718 53.5113 59.3975 52.8705L58.6623 52.1719C58.7863 51.9395 58.8545 51.6758 58.8545 51.3998V50.558C59.4069 50.7294 59.9929 50.8227 60.5998 50.8227C61.2065 50.8227 61.7926 50.7294 62.3449 50.558L62.3448 51.3996C62.3448 51.6758 62.413 51.9395 62.5371 52.172L61.802 52.8705ZM60.5999 49.2405C58.4097 49.2405 56.5804 47.6005 56.3449 45.4256C56.3323 45.3091 56.294 45.1969 56.2326 45.0969C55.7354 44.2872 55.4727 43.3624 55.4727 42.4225C55.4727 39.5955 57.7727 37.2955 60.5999 37.2955C63.4269 37.2955 65.727 39.5955 65.727 42.4226C65.727 42.9676 65.6381 43.5074 65.4669 44.0227C63.2209 41.7409 59.2697 40.8466 59.0792 40.8046C58.8453 40.753 58.6004 40.8104 58.4135 40.9605C58.2267 41.1107 58.118 41.3374 58.118 41.5771C58.118 41.5822 58.0819 42.131 57.5042 42.7086C57.1953 43.0176 57.1953 43.5184 57.5042 43.8272C57.8132 44.1362 58.314 44.1362 58.6228 43.8272C59.0677 43.3824 59.3291 42.9309 59.4824 42.5496C60.8134 42.945 63.576 43.9436 64.8158 45.6964C64.4639 47.735 62.6979 49.2405 60.5999 49.2405Z" fill="#333333" stroke="white" stroke-width="0.4" mask="url(#path-6-inside-1)"/>
<path d="M64.1363 57.8406C64.1363 57.459 64.4457 57.1496 64.8273 57.1496C65.2089 57.1496 65.5183 57.459 65.5183 57.8406V61.8681C65.5183 62.2497 65.2089 62.5591 64.8273 62.5591C64.4457 62.5591 64.1363 62.2497 64.1363 61.8681V57.8406Z" fill="#333333" stroke="white" stroke-width="0.2"/>
</svg>
