<svg width="84" height="84" viewBox="0 0 84 84" fill="none" xmlns="http://www.w3.org/2000/svg">
<circle cx="42" cy="42" r="42" fill="white"/>
<g clip-path="url(#clip0)">
<path d="M64.117 20.89L64.1954 20.8117L65.9681 19.0389C66.2461 18.7609 66.2461 18.3103 65.9681 18.0324C65.6901 17.7545 65.2395 17.7545 64.9616 18.0324L63.1888 19.8052L63.1105 19.8835L63.1035 19.773L62.933 17.0562C62.8753 16.1363 61.7555 15.7147 61.1049 16.3652L55.9995 21.4705C55.6358 21.8342 55.4458 22.3372 55.478 22.8505L55.6535 25.6463L55.6609 25.764L55.5712 25.6875C51.3192 22.0621 45.8391 19.9829 40.0338 19.9829C26.7781 19.9829 16.05 30.7097 16.05 43.9667C16.05 49.9495 18.2655 55.6798 22.2887 60.1017C22.5533 60.3924 23.0034 60.4136 23.2941 60.1492C23.5848 59.8846 23.6061 59.4345 23.3416 59.1437C19.5575 54.9845 17.4734 49.5945 17.4734 43.9667C17.4734 31.5268 27.594 21.4063 40.0338 21.4063C45.8633 21.4063 51.3489 23.6405 55.4521 27.4687L55.4899 27.504L55.4533 27.5406L51.9776 31.0161L51.9438 31.05L51.9085 31.0176C48.774 28.1404 44.6009 26.3798 40.0338 26.3798C30.3365 26.3798 22.4471 34.2693 22.4471 43.9665C22.4471 46.755 23.1192 49.5324 24.391 51.9991L24.3911 51.9992L24.3944 52.0057L24.3946 52.006M64.117 20.89L25.6588 51.3516C25.659 51.3521 25.6591 51.3524 25.659 51.3522L25.6594 51.3529L25.6595 51.3533C28.453 56.7666 33.9612 60.1298 40.034 60.1298C47.6579 60.1298 54.3141 54.7145 55.8615 47.2533C55.9413 46.8684 56.318 46.6211 56.7028 46.7009C57.0877 46.7807 57.335 47.1575 57.2552 47.5424C55.5666 55.6854 48.3413 61.5532 40.0339 61.5532C33.2921 61.5532 27.3467 57.7263 24.3946 52.006M64.117 20.89L64.2276 20.8969L66.9444 21.0674C67.8627 21.1251 68.2871 22.2438 67.6354 22.8955L62.53 28.0008L62.5654 28.0362L62.53 28.0008C62.193 28.338 61.7361 28.526 61.2623 28.526C61.2553 28.526 61.2498 28.526 61.2443 28.5261C61.1767 28.5261 61.1091 28.5199 58.3459 28.3463L58.2285 28.339L58.3046 28.4286C58.6486 28.8338 58.9813 29.2508 59.3008 29.681C62.3865 33.8363 64.0176 38.776 64.0176 43.9667C64.0176 57.2237 53.2895 67.9505 40.0338 67.9505C34.5553 67.9505 29.1979 66.0551 24.9487 62.6134C24.6434 62.366 24.5963 61.9178 24.8437 61.6124C25.0913 61.307 25.5391 61.26 25.8448 61.5073C29.8413 64.7443 34.8804 66.527 40.0338 66.527C52.4736 66.527 62.5941 56.4065 62.5942 43.9663C62.5942 38.0759 60.3443 32.6229 56.5326 28.5473L56.4972 28.5096L56.4607 28.5461L52.9848 32.022L52.9509 32.0559L52.9833 32.0912C55.8383 35.2006 57.5944 39.3339 57.6203 43.8642C57.6225 44.2573 57.3057 44.5778 56.9127 44.5801H56.9085C56.5173 44.5801 56.199 44.264 56.1969 43.8724C56.1732 39.7322 54.5772 35.9529 51.9799 33.1011L51.9446 33.0623L51.9075 33.0994L48.4626 36.5443L48.4296 36.5773L48.4604 36.6125C50.1802 38.5806 51.2236 41.1538 51.2236 43.9664C51.2236 50.1364 46.2038 55.156 40.0339 55.156C33.864 55.156 28.8443 50.1364 28.8443 43.9664C28.8443 37.7965 33.864 32.7769 40.0339 32.7769C42.8466 32.7769 45.4198 33.8203 47.3878 35.54L47.423 35.5708L47.4561 35.5377L50.9008 32.093L50.9378 32.056L50.8991 32.0207C48.0241 29.403 44.2079 27.8033 40.0339 27.8033C31.1214 27.8033 23.8706 35.0541 23.8706 43.9665C23.8706 46.5638 24.4707 49.0454 25.654 51.3423V51.3425L25.6589 51.3519L64.117 20.89ZM24.3946 52.006C24.3946 52.0061 24.3947 52.0062 24.3947 52.0063L24.3947 52.0063C24.3947 52.0064 24.3947 52.0063 24.3946 52.006ZM65.9648 22.4823L65.9176 22.5294L65.9617 22.5322L65.9648 22.4823ZM65.9648 22.4823L65.9294 22.4469L65.8983 22.4781L65.9648 22.4823ZM58.2158 26.8619L58.2629 26.8148L58.2189 26.812L58.2158 26.8619ZM58.2158 26.8619L58.2511 26.8973L58.2823 26.8661L58.2158 26.8619ZM46.3764 36.6175L46.4146 36.5793L46.3735 36.5442C44.6663 35.0839 42.4514 34.2005 40.0338 34.2005C34.6487 34.2005 30.2676 38.5815 30.2676 43.9667C30.2676 49.3518 34.6487 53.7328 40.0338 53.7328C45.419 53.7328 49.8001 49.3518 49.8001 43.9667C49.8001 41.549 48.9166 39.3341 47.4564 37.6269L47.4213 37.5859L47.383 37.6241L43.9167 41.0904L43.8865 41.1206L43.9116 41.1552C44.4863 41.9455 44.8265 42.9168 44.8265 43.9667C44.8265 46.6092 42.6765 48.7592 40.0338 48.7592C37.3912 48.7592 35.2412 46.6092 35.2412 43.9667C35.2412 41.3241 37.3912 39.1741 40.0338 39.1741C41.0835 39.1741 42.0548 39.5142 42.8453 40.0889L42.8799 40.114L42.9101 40.0838L46.3764 36.6175ZM42.8982 42.1956L42.8649 42.1421L42.8204 42.1867L40.537 44.47C40.2591 44.7479 39.8085 44.7479 39.5305 44.47C39.2525 44.192 39.2525 43.7414 39.5304 43.4635L41.8138 41.1801L41.8584 41.1355L41.8048 41.1023C41.2899 40.7828 40.6831 40.5976 40.0337 40.5976C38.1758 40.5976 36.6645 42.109 36.6645 43.9668C36.6645 45.8245 38.1758 47.3359 40.0337 47.3359C41.8916 47.3359 43.403 45.8246 43.403 43.9668C43.403 43.3174 43.2178 42.7106 42.8982 42.1956ZM61.5681 18.0326L61.5612 17.9221L61.4828 18.0004L57.0062 22.4769C56.9312 22.5518 56.892 22.6555 56.8987 22.7614L57.0886 25.7879L57.0956 25.8984L57.1739 25.8201L61.7525 21.2415L61.7685 21.2255L61.767 21.203L61.5681 18.0326ZM58.1804 26.8266L58.1021 26.9049L61.2388 27.1017L61.2422 27.0519L61.2391 27.1018L61.239 27.1017C61.3444 27.109 61.4488 27.0691 61.5235 26.9943L66.0001 22.5176L66.0785 22.4393L65.9679 22.4324L62.7976 22.2334L62.775 22.232L62.7591 22.2479L58.1804 26.8266Z" fill="#333333" stroke="white" stroke-width="0.1"/>
</g>
<defs>
<clipPath id="clip0">
<rect width="52" height="52" fill="white" transform="translate(16 16)"/>
</clipPath>
</defs>
</svg>
