<svg width="84" height="84" viewBox="0 0 84 84" fill="none" xmlns="http://www.w3.org/2000/svg">
<circle cx="42" cy="42" r="42" fill="white"/>
<g clip-path="url(#clip0)">
<path d="M50.8636 27.291H49.3951C49.6541 26.8396 49.8031 26.3174 49.8031 25.7607V21.0877C49.8031 19.3869 48.4195 18.0032 46.7186 18.0032H19.0846C17.3837 18.0038 16 19.3875 16 21.0882V25.7612C16 27.4621 17.3837 28.8458 19.0846 28.8458H20.5528C20.2939 29.2971 20.1448 29.8194 20.1448 30.376V35.049C20.1448 35.6058 20.2938 36.1279 20.5528 36.5793H19.0846C17.3837 36.5792 16 37.9628 16 39.6636V44.3366C16 45.6815 16.8656 46.8275 18.0686 47.2484C17.744 47.7367 17.5543 48.3221 17.5543 48.9513V53.6243C17.5543 54.2535 17.744 54.8389 18.0686 55.3272C16.8656 55.7481 16 56.8941 16 58.239V62.912C16 64.6127 17.3837 65.9964 19.0846 65.9964H42.781C43.2103 65.9964 43.5582 65.6485 43.5582 65.2193C43.5582 64.7901 43.2102 64.4421 42.781 64.4421H19.0846C18.2407 64.4421 17.5543 63.7557 17.5543 62.912V58.239C17.5543 57.3952 18.2408 56.7087 19.0846 56.7087H20.6389H24.7639H34.1121C34.5415 56.7087 34.8893 56.3608 34.8893 55.9316C34.8893 55.5024 34.5415 55.1544 34.1121 55.1544H24.7638H20.6389C19.795 55.1544 19.1086 54.468 19.1086 53.6242V48.9512C19.1086 48.1074 19.7951 47.421 20.6389 47.421H32.6961C33.1254 47.421 33.4732 47.073 33.4732 46.6438C33.4732 46.2146 33.1254 45.8666 32.6961 45.8666H19.0846C18.2407 45.8666 17.5543 45.1802 17.5543 44.3364V39.6634C17.5543 38.8196 18.2408 38.1332 19.0846 38.1332H23.2293H29.4496H37.0997C37.529 38.1332 37.8769 37.7852 37.8769 37.356C37.8769 36.9268 37.529 36.5789 37.0997 36.5789H29.4496H23.2293C22.3854 36.5789 21.6991 35.8924 21.6991 35.0486V30.3756C21.6991 29.5318 22.3855 28.8454 23.2293 28.8454H46.7187H50.8636C51.7074 28.8454 52.3938 29.5318 52.3938 30.3756V30.9552C52.3938 31.3844 52.7417 31.7324 53.171 31.7324C53.6003 31.7324 53.9481 31.3844 53.9481 30.9552V30.3756C53.9481 28.6746 52.5644 27.291 50.8636 27.291ZM48.2489 25.7612C48.2489 26.605 47.5625 27.2915 46.7187 27.2915H23.2293H19.0846C18.2407 27.2914 17.5543 26.6049 17.5543 25.7612V21.0882C17.5543 20.2445 18.2408 19.558 19.0846 19.558H46.7187C47.5626 19.558 48.2489 20.2445 48.2489 21.0882V25.7612Z" fill="#333333"/>
<path d="M60.3148 34.9252C59.9554 34.6909 59.4737 34.7924 59.2394 35.152C59.005 35.5115 59.1066 35.9931 59.4661 36.2274C63.8366 39.0755 66.4457 43.8859 66.4457 49.0951C66.4457 57.5576 59.5609 64.4424 51.0984 64.4424C42.6358 64.4424 35.751 57.5576 35.751 49.0951C35.751 40.6326 42.6358 33.7478 51.0984 33.7478C53.3203 33.7478 55.4632 34.212 57.4675 35.1274C57.8582 35.3059 58.319 35.1337 58.4972 34.7434C58.6756 34.353 58.5036 33.892 58.1132 33.7137C55.9048 32.705 53.5447 32.1936 51.0984 32.1936C41.7789 32.1936 34.1968 39.7756 34.1968 49.0951C34.1968 58.4146 41.7789 65.9966 51.0984 65.9966C60.4179 65.9966 68 58.4147 68 49.0952C68 43.3585 65.1271 38.0613 60.3148 34.9252Z" fill="#333333"/>
<path d="M59.7103 40.4834C57.4099 38.183 54.3515 36.9163 51.0985 36.9163C47.8454 36.9163 44.787 38.1832 42.4867 40.4834C39.4117 43.5583 38.2067 48.0792 39.3418 52.2819C39.4537 52.6962 39.8801 52.9414 40.2947 52.8295C40.709 52.7176 40.9541 52.291 40.8422 51.8766C39.8518 48.2096 40.903 44.2651 43.5858 41.5824C45.5925 39.5758 48.2606 38.4705 51.0986 38.4705C53.9366 38.4705 56.6047 39.5757 58.6114 41.5824C62.754 45.7251 62.754 52.4655 58.6114 56.6081C54.4688 60.7506 47.7284 60.7506 43.5858 56.6081C42.8412 55.8635 42.2146 55.0199 41.7234 54.1008C41.5211 53.7223 41.0505 53.5793 40.6718 53.7818C40.2933 53.984 40.1504 54.455 40.3528 54.8335C40.9161 55.8875 41.6341 56.8543 42.4868 57.707C44.8611 60.0813 47.9799 61.2685 51.0987 61.2685C54.2175 61.2685 57.3362 60.0814 59.7105 57.707C64.4588 52.9586 64.4588 45.232 59.7103 40.4834Z" fill="#333333"/>
</g>
<defs>
<clipPath id="clip0">
<rect width="52" height="52" fill="white" transform="translate(16 16)"/>
</clipPath>
</defs>
</svg>
