<svg width="70" height="70" viewBox="0 0 70 70" fill="none" xmlns="http://www.w3.org/2000/svg">
<path d="M35 70C54.33 70 70 54.33 70 35C70 15.67 54.33 0 35 0C15.67 0 0 15.67 0 35C0 54.33 15.67 70 35 70Z" fill="#F6F8FC"/>
<path d="M16.0155 34.2413L49.7614 21.23C51.3276 20.6642 52.6955 21.6121 52.188 23.9805L52.1909 23.9775L46.4451 51.0471C46.0193 52.9663 44.8788 53.433 43.2834 52.5288L34.5334 46.0801L30.313 50.1459C29.8463 50.6126 29.4526 51.0063 28.5484 51.0063L29.1697 42.1017L45.3863 27.4513C46.0922 26.83 45.2288 26.48 44.2984 27.0984L24.258 39.7159L15.6188 37.0209C13.7434 36.4259 13.7026 35.1455 16.0155 34.2413Z" fill="#333333"/>
</svg>
