<svg width="70" height="70" viewBox="0 0 70 70" fill="none" xmlns="http://www.w3.org/2000/svg">
<path d="M35.0088 0H34.9912C15.6931 0 0 15.6975 0 35C0 42.6562 2.4675 49.7525 6.66313 55.5144L2.30125 68.5169L15.7544 64.2163C21.2887 67.8825 27.8906 70 35.0088 70C54.3069 70 70 54.2981 70 35C70 15.7019 54.3069 0 35.0088 0Z" fill="#F6F8FC"/>
<path d="M55.3747 49.4236C54.5303 51.8079 51.1791 53.7854 48.506 54.3629C46.6772 54.7523 44.2885 55.063 36.2472 51.7292C25.9616 47.468 19.3378 37.0161 18.8216 36.3379C18.3272 35.6598 14.6653 30.8036 14.6653 25.7811C14.6653 20.7586 17.216 18.3129 18.2441 17.2629C19.0885 16.4011 20.4841 16.0073 21.8228 16.0073C22.256 16.0073 22.6453 16.0292 22.9953 16.0467C24.0235 16.0904 24.5397 16.1517 25.2178 17.7748C26.0622 19.8092 28.1185 24.8317 28.3635 25.3479C28.6128 25.8642 28.8622 26.5642 28.5122 27.2423C28.1841 27.9423 27.8953 28.2529 27.3791 28.8479C26.8628 29.4429 26.3728 29.8979 25.8566 30.5367C25.3841 31.0923 24.8503 31.6873 25.4453 32.7154C26.0403 33.7217 28.0966 37.0773 31.1241 39.7723C35.031 43.2504 38.1985 44.3617 39.3316 44.8342C40.176 45.1842 41.1822 45.1011 41.7991 44.4448C42.5822 43.6004 43.5491 42.2004 44.5335 40.8223C45.2335 39.8336 46.1172 39.7111 47.0447 40.0611C47.9897 40.3892 52.9903 42.8611 54.0185 43.3729C55.0466 43.8892 55.7247 44.1342 55.9741 44.5673C56.2191 45.0004 56.2191 47.0348 55.3747 49.4236Z" fill="#333333"/>
</svg>
