<svg width="70" height="70" viewBox="0 0 70 70" fill="none" xmlns="http://www.w3.org/2000/svg">
<path d="M35 70C54.33 70 70 54.33 70 35C70 15.67 54.33 0 35 0C15.67 0 0 15.67 0 35C0 54.33 15.67 70 35 70Z" fill="#F6F8FC"/>
<path fill-rule="evenodd" clip-rule="evenodd" d="M33.6779 50.3506H36.425C36.425 50.3506 37.2548 50.2595 37.6784 49.8028C38.0684 49.3835 38.0559 48.5962 38.0559 48.5962C38.0559 48.5962 38.0022 44.9101 39.713 44.3673C41.3994 43.8326 43.565 47.9298 45.8604 49.5052C47.5961 50.6975 48.915 50.4361 48.915 50.4361L55.0524 50.3506C55.0524 50.3506 58.263 50.1528 56.7407 47.6285C56.6159 47.422 55.8541 45.7611 52.1774 42.3483C48.3292 38.7765 48.8445 39.3542 53.4802 33.1756C56.3033 29.4129 57.432 27.1156 57.0795 26.1317C56.7432 25.1946 54.6668 25.4423 54.6668 25.4423L47.7564 25.4854C47.7564 25.4854 47.2442 25.4155 46.8642 25.6426C46.493 25.8653 46.2541 26.3844 46.2541 26.3844C46.2541 26.3844 45.1603 29.2962 43.7016 31.7725C40.6245 36.9977 39.3942 37.2735 38.8913 36.949C37.7215 36.1929 38.0135 33.9112 38.0135 32.2903C38.0135 27.2267 38.7815 25.1154 36.518 24.5688C35.7668 24.3873 35.214 24.2675 33.293 24.2481C30.8273 24.2226 28.7403 24.2556 27.5587 24.8346C26.7725 25.2196 26.1661 26.0774 26.5354 26.1267C26.9921 26.1879 28.0266 26.4056 28.575 27.1524C29.2831 28.1158 29.2582 30.2795 29.2582 30.2795C29.2582 30.2795 29.665 36.2403 28.308 36.9809C27.3765 37.4887 26.0987 36.4518 23.3554 31.7113C21.9497 29.2831 20.8885 26.599 20.8885 26.599C20.8885 26.599 20.6838 26.0974 20.3188 25.8291C19.8758 25.5041 19.2569 25.4005 19.2569 25.4005L12.6903 25.4436C12.6903 25.4436 11.7045 25.471 11.3427 25.8996C11.0207 26.2808 11.3171 27.0695 11.3171 27.0695C11.3171 27.0695 16.4581 39.0972 22.2791 45.1584C27.6167 50.7156 33.6779 50.3506 33.6779 50.3506Z" fill="#333333"/>
</svg>
