<svg width="60" height="60" viewBox="0 0 60 60" fill="none" xmlns="http://www.w3.org/2000/svg">
<path d="M52.908 31.5087C51.3772 29.1234 49.2204 27.2146 46.671 25.9891C46.0876 25.7085 45.3874 25.9542 45.107 26.5375C44.8266 27.1209 45.0721 27.821 45.6555 28.1014C50.0982 30.237 52.9687 34.8002 52.9687 39.7265C52.9687 41.8345 52.4491 43.925 51.4662 45.7723C51.1622 46.3436 51.3789 47.0533 51.9503 47.3573C52.1256 47.4505 52.3141 47.4948 52.4997 47.4948C52.919 47.4948 53.3246 47.2691 53.5353 46.8732C54.6979 44.6883 55.3124 42.217 55.3124 39.7265C55.3124 36.8015 54.481 33.9598 52.908 31.5087Z" fill="#58A151"/>
<path d="M41.9146 24.4923L41.8358 24.4922C41.1887 24.4922 40.6639 25.0168 40.6639 25.6641C40.6639 26.3113 41.1887 26.8359 41.8358 26.8359L41.9036 26.8361C41.9055 26.8361 41.9073 26.8361 41.9093 26.8361C42.5539 26.8361 43.078 26.315 43.081 25.6697C43.0839 25.0225 42.5618 24.4954 41.9146 24.4923Z" fill="#58A151"/>
<path d="M34.5007 51.3519C30.0581 49.2162 27.1876 44.653 27.1876 39.7268C27.1876 37.6189 27.7072 35.5283 28.6901 33.681C28.9941 33.1097 28.7774 32.4 28.206 32.0961C27.6348 31.7921 26.9249 32.0087 26.621 32.5801C25.4584 34.7651 24.8439 37.2364 24.8439 39.7268C24.8439 42.6518 25.6753 45.4934 27.2483 47.9446C28.7792 50.3299 30.9359 52.2387 33.4853 53.4643C33.649 53.5431 33.822 53.5802 33.9922 53.5802C34.4286 53.5802 34.8475 53.3354 35.0493 52.9159C35.3295 52.3325 35.0841 51.6323 34.5007 51.3519Z" fill="#58A151"/>
<path d="M38.3204 52.6174L38.2526 52.6172C37.6024 52.616 37.0784 53.1362 37.0754 53.7836C37.0724 54.4308 37.5948 54.9579 38.2419 54.9609L38.3204 54.9612C38.9675 54.9612 39.4923 54.4364 39.4923 53.7893C39.4923 53.1422 38.9675 52.6174 38.3204 52.6174Z" fill="#58A151"/>
<path d="M45.3994 20.5275C45.2568 20.1876 45.0821 19.8673 44.8787 19.5703H47.9296C50.9019 19.5703 53.3202 17.152 53.3202 14.1797C53.3202 11.2073 50.9019 8.78905 47.9296 8.78905H38.5452C39.1418 7.92163 39.4921 6.87221 39.4921 5.74218C39.4921 2.76984 37.0738 0.351562 34.1015 0.351562H5.39061C2.41828 0.351562 0 2.76984 0 5.74218C0 8.71452 2.41828 11.1328 5.39061 11.1328H14.775C14.1784 12.0002 13.8281 13.0496 13.8281 14.1797C13.8281 15.3097 14.1783 16.3591 14.775 17.2265H11.7187C8.74639 17.2265 6.32811 19.6448 6.32811 22.6171C6.32811 24.3242 7.12663 25.8475 8.36893 26.8359C7.12663 27.8242 6.32811 29.3476 6.32811 31.0546C6.32811 32.7617 7.12663 34.285 8.36893 35.2734C7.12663 36.2617 6.32811 37.785 6.32811 39.4921C6.32811 41.1992 7.12663 42.7225 8.36893 43.7109C7.12663 44.6992 6.32811 46.2225 6.32811 47.9296C6.32811 50.9019 8.74639 53.3202 11.7187 53.3202H25.5292C29.1674 57.2117 34.3431 59.6484 40.0782 59.6484C51.0631 59.6484 60 50.7115 60 39.7266C60 30.584 53.809 22.8612 45.3994 20.5275ZM47.9296 11.1328C49.6097 11.1328 50.9765 12.4997 50.9765 14.1797C50.9765 15.8597 49.6097 17.2265 47.9296 17.2265H40.4296H19.2187C17.5386 17.2265 16.1718 15.8597 16.1718 14.1797C16.1718 12.4997 17.5386 11.1328 19.2187 11.1328H47.9296ZM5.39061 8.78905C3.7105 8.78905 2.34375 7.42217 2.34375 5.74218C2.34375 4.06218 3.7105 2.69531 5.39061 2.69531H34.1015C35.7816 2.69531 37.1484 4.06218 37.1484 5.74218C37.1484 7.42217 35.7816 8.78905 34.1015 8.78905H5.39061ZM11.7187 19.5703H40.4296C40.9016 19.5703 41.3536 19.68 41.7591 19.8764C41.2048 19.8298 40.6444 19.8048 40.0782 19.8048C34.5768 19.8048 29.5893 22.0464 25.9807 25.664H11.7187C10.0387 25.664 8.67186 24.2971 8.67186 22.6171C8.67186 20.9371 10.0387 19.5703 11.7187 19.5703ZM11.7187 28.0078H23.9783C22.648 29.8304 21.6194 31.8861 20.9662 34.1015H11.7187C10.0386 34.1015 8.67186 32.7347 8.67186 31.0546C8.67186 29.3746 10.0386 28.0078 11.7187 28.0078ZM11.7187 36.4452H20.4281C20.2503 37.5132 20.1563 38.609 20.1563 39.7266C20.1563 40.6812 20.2254 41.6199 20.3558 42.539H11.7187C10.0386 42.539 8.67186 41.1722 8.67186 39.4921C8.67186 37.812 10.0386 36.4452 11.7187 36.4452ZM11.7187 50.9765C10.0386 50.9765 8.67186 49.6097 8.67186 47.9296C8.67186 46.2495 10.0386 44.8827 11.7187 44.8827H20.8343C21.4256 47.0874 22.3862 49.142 23.6459 50.9765H11.7187ZM40.0782 57.3047C30.3856 57.3047 22.5001 49.4192 22.5001 39.7266C22.5001 30.034 30.3856 22.1485 40.0782 22.1485C49.7707 22.1485 57.6563 30.034 57.6563 39.7266C57.6563 49.4192 49.7707 57.3047 40.0782 57.3047Z" fill="#58A151"/>
</svg>
