<svg width="60" height="60" viewBox="0 0 60 60" fill="none" xmlns="http://www.w3.org/2000/svg">
<path d="M59.992 8.30057C59.992 3.72362 56.2685 0 51.6915 0C47.7153 0 44.3847 2.811 43.5786 6.54985H32.0654C30.5007 6.54985 29.0296 7.15909 27.9228 8.26553L1.7256 34.4565C0.618799 35.563 0.00909426 37.0345 0.00909426 38.5996C0.00897707 40.1648 0.618448 41.6363 1.72524 42.7431L17.2659 58.2837C18.3725 59.3903 19.8439 59.9999 21.4089 59.9999C22.9739 59.9999 24.4452 59.3904 25.5519 58.2837L34.6153 49.2203C35.0729 48.7627 35.0729 48.0207 34.6153 47.563C34.1576 47.1055 33.4158 47.1055 32.958 47.563L23.8946 56.6264C22.5239 57.9971 20.2937 57.9971 18.923 56.6264L3.38233 41.0859C2.71826 40.4218 2.35253 39.539 2.35264 38.5997C2.35264 37.6606 2.71837 36.7779 3.38257 36.1139L29.5799 9.92297C30.2438 9.25913 31.1266 8.89351 32.0654 8.89351H43.4143C43.5542 10.887 44.3951 12.7428 45.822 14.1697C46.2798 14.6274 47.0217 14.6274 47.4793 14.1698C47.937 13.7122 47.937 12.9703 47.4794 12.5126C46.4953 11.5284 45.898 10.2605 45.7638 8.8934H47.6069C49.5453 8.8934 51.1224 10.4705 51.1224 12.4089V27.9427C51.1224 28.8817 50.7568 29.7646 50.0927 30.4285L40.4156 40.1057C39.958 40.5633 39.958 41.3053 40.4156 41.763C40.8733 42.2205 41.6151 42.2205 42.0729 41.763L51.75 32.0859C52.8566 30.9792 53.4662 29.5078 53.4662 27.9428V16.4097C57.245 15.5937 59.992 12.2593 59.992 8.30057ZM53.466 13.9897V12.4089C53.466 9.17815 50.8376 6.54973 47.6069 6.54973H45.9977C46.7473 4.11689 49.0161 2.34367 51.6915 2.34367C54.9761 2.34367 57.6483 5.01592 57.6483 8.30057C57.6483 10.9643 55.9163 13.2341 53.466 13.9897Z" fill="#58A151"/>
<path d="M16.1694 38.5361C16.627 38.0785 16.627 37.3365 16.1694 36.8788C15.7117 36.4213 14.97 36.4213 14.5121 36.8788L11.6912 39.6997C11.2336 40.1573 11.2336 40.8993 11.6912 41.357L18.6514 48.3174C18.8802 48.5461 19.1801 48.6606 19.48 48.6606C19.7799 48.6606 20.0797 48.5461 20.3086 48.3174C20.7662 47.8598 20.7662 47.1178 20.3086 46.6601L17.5911 43.9426L19.3594 42.1743C19.817 41.7167 19.817 40.9747 19.3594 40.517C18.9017 40.0595 18.1599 40.0595 17.7021 40.517L15.9338 42.2852L14.1767 40.5282L16.1694 38.5361Z" fill="#58A151"/>
<path d="M30.0014 38.14C30.6145 38.14 31.1302 37.6633 31.1697 37.0428C31.211 36.3969 30.7208 35.84 30.0749 35.7988L26.2009 35.5518C26.5266 34.992 26.7112 34.3586 26.7318 33.7C26.764 32.6635 26.3896 31.7005 25.6775 30.9882C24.2232 29.534 21.811 29.5797 20.2999 31.0905L18.4503 32.9401C18.4499 32.9405 18.4496 32.941 18.4492 32.9413C18.4489 32.9417 18.4484 32.942 18.4481 32.9424C17.9905 33.4 17.9905 34.142 18.4481 34.5997L25.4084 41.5599C25.6373 41.7887 25.9371 41.9031 26.237 41.9031C26.5369 41.9031 26.8367 41.7887 27.0656 41.5599C27.5232 41.1023 27.5232 40.3603 27.0656 39.9026L24.9855 37.8226L29.9255 38.1376C29.9511 38.1392 29.9764 38.14 30.0014 38.14V38.14ZM21.9574 32.7477C22.5442 32.1609 23.4888 32.114 24.0202 32.6454C24.2702 32.8954 24.4012 33.2438 24.3893 33.6267C24.3768 34.027 24.2049 34.4211 23.9178 34.7082C23.6829 34.9431 23.2781 35.3513 22.9085 35.7245C22.5435 35.3633 22.1473 34.9703 21.9213 34.7444C21.7279 34.5512 21.3194 34.1448 20.9388 33.7662L21.9574 32.7477Z" fill="#58A151"/>
<path d="M41.4143 27.2116L44.3471 24.2789C44.8047 23.8213 44.8047 23.0793 44.3471 22.6216C43.8894 22.1641 43.1476 22.1641 42.6898 22.6216L40.5856 24.7257L38.7627 22.9028L40.6505 21.0149C41.1081 20.5573 41.1081 19.8153 40.6505 19.3575C40.1928 18.9001 39.4511 18.9001 38.9932 19.3575L37.1054 21.2455L35.2824 19.4225L37.3866 17.3183C37.8442 16.8607 37.8442 16.1187 37.3866 15.661C36.9289 15.2035 36.1872 15.2035 35.7293 15.661L32.7966 18.5937C32.339 19.0513 32.339 19.7933 32.7966 20.2511L36.2762 23.7307L36.2768 23.7313C36.2768 23.7313 36.2771 23.7316 36.2774 23.7319L39.7569 27.2115C39.9767 27.4312 40.2747 27.5547 40.5855 27.5547C40.8963 27.5547 41.1945 27.4314 41.4143 27.2116Z" fill="#58A151"/>
<path d="M33.7897 34.3516C34.1005 34.3516 34.3985 34.2281 34.6183 34.0084L37.5511 31.0756C38.0087 30.618 38.0087 29.876 37.5511 29.4183C37.0934 28.9608 36.3516 28.9608 35.8938 29.4183L33.7896 31.5225L31.9667 29.6996L33.8548 27.8116C34.3124 27.354 34.3124 26.612 33.8548 26.1543C33.3972 25.697 32.6554 25.6968 32.1974 26.1543L30.3095 28.0422L28.4866 26.2193L30.5909 24.1152C31.0485 23.6576 31.0485 22.9156 30.5909 22.4579C30.1331 22.0004 29.3914 22.0004 28.9335 22.4579L26.0008 25.3906C25.5432 25.8482 25.5432 26.5902 26.0008 27.0479L32.961 34.0083C33.1809 34.2281 33.4789 34.3516 33.7897 34.3516V34.3516Z" fill="#58A151"/>
<path d="M37.5159 43.4912C37.2077 43.4912 36.9054 43.6166 36.6874 43.8346C36.4696 44.0525 36.3441 44.3549 36.3441 44.6631C36.3441 44.9713 36.4694 45.2736 36.6874 45.4916C36.9054 45.7095 37.2077 45.835 37.5159 45.835C37.8241 45.835 38.1265 45.7096 38.3444 45.4916C38.5623 45.2736 38.6878 44.9713 38.6878 44.6631C38.6878 44.3549 38.5624 44.0525 38.3444 43.8346C38.1265 43.6166 37.8241 43.4912 37.5159 43.4912Z" fill="#58A151"/>
</svg>
