<svg width="40" height="40" viewBox="0 0 40 40" fill="none" xmlns="http://www.w3.org/2000/svg">
<path d="M39.9948 5.53371C39.9948 2.48241 37.5125 0 34.4612 0C31.8103 0 29.59 1.874 29.0526 4.36657H21.3771C20.334 4.36657 19.3532 4.77272 18.6153 5.51035L1.15057 22.971C0.412703 23.7087 0.00623323 24.6897 0.00623323 25.7331C0.0061551 26.7766 0.412469 27.7575 1.15033 28.4954L11.5107 38.8558C12.2485 39.5935 13.2294 39.9999 14.2728 39.9999C15.3161 39.9999 16.297 39.5936 17.0348 38.8558L23.0771 32.8135C23.3821 32.5085 23.3821 32.0138 23.0771 31.7087C22.7719 31.4037 22.2774 31.4037 21.9722 31.7087L15.9299 37.7509C15.0161 38.6647 13.5293 38.6647 12.6155 37.7509L2.25506 27.3906C1.81234 26.9479 1.56852 26.3593 1.5686 25.7332C1.5686 25.1071 1.81242 24.5186 2.25522 24.076L19.7201 6.61531C20.1627 6.17275 20.7512 5.92901 21.3771 5.92901H28.943C29.0363 7.25803 29.5969 8.49517 30.5482 9.44646C30.8533 9.75161 31.3479 9.75161 31.653 9.44654C31.9582 9.14147 31.9582 8.64688 31.6531 8.34174C30.997 7.68559 30.5988 6.84031 30.5094 5.92893H31.7381C33.0304 5.92893 34.0818 6.9803 34.0818 8.2726V18.6285C34.0818 19.2545 33.838 19.8431 33.3953 20.2857L26.9439 26.7371C26.6388 27.0422 26.6388 27.5368 26.9439 27.842C27.249 28.147 27.7435 28.147 28.0488 27.842L34.5002 21.3906C35.2379 20.6528 35.6443 19.6719 35.6443 18.6286V10.9398C38.1635 10.3958 39.9948 8.17284 39.9948 5.53371ZM35.6442 9.32647V8.2726C35.6442 6.11877 33.8919 4.36649 31.7381 4.36649H30.6653C31.1651 2.74459 32.6776 1.56245 34.4612 1.56245C36.6509 1.56245 38.4324 3.34394 38.4324 5.53371C38.4324 7.30951 37.2777 8.82274 35.6442 9.32647Z" fill="black"/>
<path d="M10.7795 25.6908C11.0846 25.3857 11.0846 24.8911 10.7795 24.5859C10.4744 24.2809 9.97988 24.2809 9.67465 24.5859L7.79402 26.4666C7.48895 26.7716 7.48895 27.2663 7.79402 27.5714L12.4342 32.2117C12.5867 32.3642 12.7867 32.4405 12.9866 32.4405C13.1865 32.4405 13.3864 32.3642 13.539 32.2117C13.844 31.9066 13.844 31.4119 13.539 31.1068L11.7273 29.2951L12.9062 28.1163C13.2112 27.8112 13.2112 27.3165 12.9062 27.0114C12.601 26.7064 12.1065 26.7064 11.8013 27.0114L10.6224 28.1902L9.45107 27.0189L10.7795 25.6908Z" fill="black"/>
<path d="M20.0009 25.4269C20.4097 25.4269 20.7535 25.1091 20.7798 24.6955C20.8073 24.2649 20.4805 23.8935 20.0499 23.8661L17.4673 23.7014C17.6844 23.3283 17.8075 22.906 17.8212 22.4669C17.8427 21.7759 17.5931 21.1339 17.1183 20.6591C16.1488 19.6896 14.5407 19.72 13.5333 20.7273L12.3002 21.9603C12.3 21.9606 12.2997 21.9609 12.2995 21.9611C12.2993 21.9613 12.2989 21.9616 12.2987 21.9618C11.9936 22.2669 11.9936 22.7616 12.2987 23.0667L16.9389 27.7069C17.0915 27.8593 17.2914 27.9357 17.4913 27.9357C17.6913 27.9357 17.8912 27.8593 18.0437 27.7069C18.3488 27.4018 18.3488 26.9071 18.0437 26.602L16.657 25.2153L19.9503 25.4253C19.9674 25.4264 19.9843 25.4269 20.0009 25.4269ZM14.6382 21.8321C15.0295 21.4408 15.6592 21.4096 16.0135 21.7639C16.1801 21.9305 16.2675 22.1627 16.2595 22.4181C16.2512 22.6849 16.1366 22.9476 15.9452 23.139C15.7886 23.2957 15.5188 23.5678 15.2724 23.8166C15.029 23.5757 14.7649 23.3138 14.6142 23.1632C14.4853 23.0344 14.2129 22.7634 13.9592 22.511L14.6382 21.8321Z" fill="black"/>
<path d="M27.6095 18.1413L29.5647 16.1862C29.8698 15.8811 29.8698 15.3864 29.5647 15.0813C29.2595 14.7763 28.765 14.7763 28.4598 15.0813L27.057 16.484L25.8418 15.2688L27.1003 14.0101C27.4054 13.7051 27.4054 13.2104 27.1003 12.9053C26.7952 12.6003 26.3007 12.6003 25.9954 12.9053L24.7369 14.1639L23.5215 12.9485L24.9244 11.5458C25.2294 11.2407 25.2294 10.746 24.9244 10.4409C24.6192 10.1359 24.1247 10.1359 23.8195 10.4409L21.8643 12.3961C21.5593 12.7011 21.5593 13.1958 21.8643 13.5009L24.1841 15.8207L24.1845 15.8211C24.1845 15.8211 24.1847 15.8213 24.1849 15.8215L26.5046 18.1413C26.6511 18.2877 26.8498 18.3701 27.057 18.3701C27.2641 18.3701 27.463 18.2878 27.6095 18.1413Z" fill="black"/>
<path d="M22.5265 22.9008C22.7337 22.9008 22.9323 22.8185 23.0789 22.672L25.0341 20.7168C25.3391 20.4118 25.3391 19.9171 25.0341 19.612C24.7289 19.307 24.2344 19.307 23.9292 19.612L22.5264 21.0147L21.3111 19.7995L22.5698 18.5408C22.8749 18.2358 22.8749 17.7411 22.5698 17.4359C22.2648 17.1311 21.7703 17.131 21.465 17.4359L20.2063 18.6946L18.9911 17.4793L20.3939 16.0765C20.699 15.7715 20.699 15.2768 20.3939 14.9717C20.0888 14.6667 19.5942 14.6667 19.289 14.9717L17.3339 16.9268C17.0288 17.2319 17.0288 17.7266 17.3339 18.0317L21.974 22.6719C22.1206 22.8185 22.3192 22.9008 22.5265 22.9008Z" fill="black"/>
<path d="M25.0105 28.9941C24.8051 28.9941 24.6035 29.0777 24.4582 29.223C24.3129 29.3684 24.2293 29.5699 24.2293 29.7754C24.2293 29.9809 24.3129 30.1824 24.4582 30.3277C24.6035 30.473 24.8051 30.5566 25.0105 30.5566C25.216 30.5566 25.4176 30.473 25.5629 30.3277C25.7081 30.1824 25.7918 29.9809 25.7918 29.7754C25.7918 29.5699 25.7082 29.3684 25.5629 29.223C25.4176 29.0777 25.216 28.9941 25.0105 28.9941Z" fill="black"/>
</svg>
