<svg width="40" height="40" viewBox="0 0 40 40" fill="none" xmlns="http://www.w3.org/2000/svg">
<path d="M20 40C31.0457 40 40 31.0457 40 20C40 8.95431 31.0457 0 20 0C8.95431 0 0 8.95431 0 20C0 31.0457 8.95431 40 20 40Z" fill="#B6CC43"/>
<path fill-rule="evenodd" clip-rule="evenodd" d="M19.2445 28.7716H20.8143C20.8143 28.7716 21.2884 28.7196 21.5305 28.4586C21.7533 28.219 21.7462 27.7691 21.7462 27.7691C21.7462 27.7691 21.7155 25.6628 22.6931 25.3526C23.6568 25.0471 24.8943 27.3883 26.2059 28.2885C27.1977 28.9699 27.9514 28.8205 27.9514 28.8205L31.4585 28.7716C31.4585 28.7716 33.2931 28.6586 32.4232 27.2161C32.3519 27.0981 31.9166 26.1491 29.8156 24.1989C27.6166 22.1578 27.9111 22.488 30.5601 18.9574C32.1733 16.8072 32.8183 15.4945 32.6168 14.9323C32.4247 14.3968 31.2382 14.5383 31.2382 14.5383L27.2894 14.5629C27.2894 14.5629 26.9967 14.523 26.7795 14.6528C26.5674 14.78 26.4309 15.0767 26.4309 15.0767C26.4309 15.0767 25.8059 16.7405 24.9723 18.1556C23.214 21.1414 22.5109 21.299 22.2236 21.1136C21.5551 20.6815 21.722 19.3777 21.722 18.4515C21.722 15.558 22.1608 14.3515 20.8674 14.0392C20.4381 13.9354 20.1223 13.867 19.0245 13.8559C17.6156 13.8413 16.423 13.8602 15.7478 14.1911C15.2986 14.411 14.952 14.9013 15.1631 14.9294C15.424 14.9644 16.0152 15.0888 16.3285 15.5155C16.7332 16.066 16.7189 17.3024 16.7189 17.3024C16.7189 17.3024 16.9514 20.7086 16.1759 21.1318C15.6437 21.422 14.9135 20.8295 13.3459 18.1206C12.5427 16.7331 11.9362 15.1993 11.9362 15.1993C11.9362 15.1993 11.8193 14.9127 11.6107 14.7594C11.3576 14.5736 11.0039 14.5144 11.0039 14.5144L7.25156 14.539C7.25156 14.539 6.68826 14.5547 6.48148 14.7996C6.29752 15.0175 6.46687 15.4681 6.46687 15.4681C6.46687 15.4681 9.40458 22.3411 12.7309 25.8047C15.7809 28.9802 19.2445 28.7716 19.2445 28.7716Z" fill="white"/>
</svg>
