<svg width="86" height="18" viewBox="0 0 86 18" fill="none" xmlns="http://www.w3.org/2000/svg">
<path d="M24.9307 2.01855C24.361 2.01855 23.9199 2.2334 23.6074 2.66309C23.2949 3.08952 23.1387 3.68522 23.1387 4.4502C23.1387 6.04199 23.736 6.83789 24.9307 6.83789C25.432 6.83789 26.0391 6.71257 26.752 6.46191V7.73145C26.166 7.97559 25.5117 8.09766 24.7891 8.09766C23.7507 8.09766 22.9564 7.78353 22.4062 7.15527C21.8561 6.52376 21.5811 5.61882 21.5811 4.44043C21.5811 3.69824 21.7161 3.04883 21.9863 2.49219C22.2565 1.93229 22.6439 1.50423 23.1484 1.20801C23.6562 0.908529 24.2503 0.758789 24.9307 0.758789C25.624 0.758789 26.3206 0.926432 27.0205 1.26172L26.5322 2.49219C26.2653 2.36523 25.9967 2.25456 25.7266 2.16016C25.4564 2.06576 25.1911 2.01855 24.9307 2.01855ZM29.3447 5.26074C29.3447 5.80111 29.4326 6.20964 29.6084 6.48633C29.7874 6.76302 30.0771 6.90137 30.4775 6.90137C30.8747 6.90137 31.1595 6.76465 31.332 6.49121C31.5078 6.21452 31.5957 5.80436 31.5957 5.26074C31.5957 4.72038 31.5078 4.3151 31.332 4.04492C31.1562 3.77474 30.8682 3.63965 30.4678 3.63965C30.0706 3.63965 29.7842 3.77474 29.6084 4.04492C29.4326 4.31185 29.3447 4.71712 29.3447 5.26074ZM33.1191 5.26074C33.1191 6.14941 32.8848 6.8444 32.416 7.3457C31.9473 7.84701 31.2946 8.09766 30.458 8.09766C29.9339 8.09766 29.4717 7.98372 29.0713 7.75586C28.6709 7.52474 28.3633 7.19434 28.1484 6.76465C27.9336 6.33496 27.8262 5.83366 27.8262 5.26074C27.8262 4.36882 28.0589 3.67546 28.5244 3.18066C28.9899 2.68587 29.6442 2.43848 30.4873 2.43848C31.0114 2.43848 31.4736 2.55241 31.874 2.78027C32.2744 3.00814 32.582 3.33529 32.7969 3.76172C33.0117 4.18815 33.1191 4.68783 33.1191 5.26074ZM39.3887 8H37.8994V4.81152C37.8994 4.41764 37.8294 4.12305 37.6895 3.92773C37.5495 3.72917 37.3265 3.62988 37.0205 3.62988C36.6038 3.62988 36.3027 3.76986 36.1172 4.0498C35.9316 4.3265 35.8389 4.78711 35.8389 5.43164V8H34.3496V2.54102H35.4873L35.6875 3.23926H35.7705C35.9365 2.97559 36.1644 2.77702 36.4541 2.64355C36.7471 2.50684 37.0791 2.43848 37.4502 2.43848C38.085 2.43848 38.5667 2.611 38.8955 2.95605C39.2243 3.29785 39.3887 3.79264 39.3887 4.44043V8ZM44.7305 6.37891C44.7305 6.9388 44.5352 7.36523 44.1445 7.6582C43.7572 7.95117 43.1761 8.09766 42.4014 8.09766C42.0042 8.09766 41.6657 8.06999 41.3857 8.01465C41.1058 7.96257 40.8438 7.88444 40.5996 7.78027V6.5498C40.8763 6.68001 41.1872 6.78906 41.5322 6.87695C41.8805 6.96484 42.1865 7.00879 42.4502 7.00879C42.9906 7.00879 43.2607 6.85254 43.2607 6.54004C43.2607 6.42285 43.2249 6.32845 43.1533 6.25684C43.0817 6.18197 42.958 6.09896 42.7822 6.00781C42.6064 5.91341 42.3721 5.80436 42.0791 5.68066C41.6592 5.50488 41.3499 5.34212 41.1514 5.19238C40.9561 5.04264 40.8128 4.87174 40.7217 4.67969C40.6338 4.48438 40.5898 4.24512 40.5898 3.96191C40.5898 3.47689 40.777 3.10254 41.1514 2.83887C41.529 2.57194 42.0628 2.43848 42.7529 2.43848C43.4105 2.43848 44.0501 2.58171 44.6719 2.86816L44.2227 3.94238C43.9492 3.8252 43.6937 3.72917 43.4561 3.6543C43.2184 3.57943 42.9759 3.54199 42.7285 3.54199C42.2891 3.54199 42.0693 3.66081 42.0693 3.89844C42.0693 4.0319 42.1393 4.14746 42.2793 4.24512C42.4225 4.34277 42.7334 4.48763 43.2119 4.67969C43.6383 4.85221 43.9508 5.01335 44.1494 5.16309C44.348 5.31283 44.4945 5.48535 44.5889 5.68066C44.6833 5.87598 44.7305 6.10872 44.7305 6.37891ZM47.0791 5.26074C47.0791 5.80111 47.167 6.20964 47.3428 6.48633C47.5218 6.76302 47.8115 6.90137 48.2119 6.90137C48.609 6.90137 48.8939 6.76465 49.0664 6.49121C49.2422 6.21452 49.3301 5.80436 49.3301 5.26074C49.3301 4.72038 49.2422 4.3151 49.0664 4.04492C48.8906 3.77474 48.6025 3.63965 48.2021 3.63965C47.805 3.63965 47.5186 3.77474 47.3428 4.04492C47.167 4.31185 47.0791 4.71712 47.0791 5.26074ZM50.8535 5.26074C50.8535 6.14941 50.6191 6.8444 50.1504 7.3457C49.6816 7.84701 49.029 8.09766 48.1924 8.09766C47.6683 8.09766 47.2061 7.98372 46.8057 7.75586C46.4053 7.52474 46.0977 7.19434 45.8828 6.76465C45.668 6.33496 45.5605 5.83366 45.5605 5.26074C45.5605 4.36882 45.7933 3.67546 46.2588 3.18066C46.7243 2.68587 47.3786 2.43848 48.2217 2.43848C48.7458 2.43848 49.208 2.55241 49.6084 2.78027C50.0088 3.00814 50.3164 3.33529 50.5312 3.76172C50.7461 4.18815 50.8535 4.68783 50.8535 5.26074ZM55.1309 2.43848C55.3327 2.43848 55.5003 2.45312 55.6338 2.48242L55.5215 3.87891C55.401 3.84635 55.2546 3.83008 55.082 3.83008C54.6068 3.83008 54.2357 3.95215 53.9688 4.19629C53.7051 4.44043 53.5732 4.78223 53.5732 5.22168V8H52.084V2.54102H53.2119L53.4316 3.45898H53.5049C53.6742 3.15299 53.902 2.90723 54.1885 2.72168C54.4782 2.53288 54.7923 2.43848 55.1309 2.43848ZM58.9248 6.91113C59.1852 6.91113 59.4977 6.85417 59.8623 6.74023V7.84863C59.4912 8.01465 59.0355 8.09766 58.4951 8.09766C57.8994 8.09766 57.4648 7.94792 57.1914 7.64844C56.9212 7.3457 56.7861 6.89323 56.7861 6.29102V3.65918H56.0732V3.0293L56.8936 2.53125L57.3232 1.37891H58.2754V2.54102H59.8037V3.65918H58.2754V6.29102C58.2754 6.5026 58.334 6.65885 58.4512 6.75977C58.5716 6.86068 58.7295 6.91113 58.9248 6.91113ZM60.9072 1.12988C60.9072 0.644857 61.1774 0.402344 61.7178 0.402344C62.2581 0.402344 62.5283 0.644857 62.5283 1.12988C62.5283 1.361 62.46 1.54167 62.3232 1.67188C62.1898 1.79883 61.988 1.8623 61.7178 1.8623C61.1774 1.8623 60.9072 1.61816 60.9072 1.12988ZM62.46 8H60.9707V2.54102H62.46V8ZM67.8945 8L67.6943 7.30176H67.6162C67.4567 7.55566 67.2305 7.7526 66.9375 7.89258C66.6445 8.0293 66.3109 8.09766 65.9365 8.09766C65.2952 8.09766 64.8118 7.92676 64.4863 7.58496C64.1608 7.23991 63.998 6.74512 63.998 6.10059V2.54102H65.4873V5.72949C65.4873 6.12337 65.5573 6.4196 65.6973 6.61816C65.8372 6.81348 66.0602 6.91113 66.3662 6.91113C66.7829 6.91113 67.084 6.77279 67.2695 6.49609C67.4551 6.21615 67.5479 5.75391 67.5479 5.10938V2.54102H69.0371V8H67.8945ZM75.4873 8H73.998V4.81152C73.998 4.41764 73.9313 4.12305 73.7979 3.92773C73.6676 3.72917 73.4609 3.62988 73.1777 3.62988C72.7969 3.62988 72.5202 3.76986 72.3477 4.0498C72.1751 4.32975 72.0889 4.79036 72.0889 5.43164V8H70.5996V2.54102H71.7373L71.9375 3.23926H72.0205C72.167 2.98861 72.3786 2.79329 72.6553 2.65332C72.932 2.51009 73.2493 2.43848 73.6074 2.43848C74.4245 2.43848 74.9779 2.7054 75.2676 3.23926H75.3994C75.5459 2.98535 75.7607 2.78841 76.0439 2.64844C76.3304 2.50846 76.6527 2.43848 77.0107 2.43848C77.6292 2.43848 78.0964 2.59798 78.4121 2.91699C78.7311 3.23275 78.8906 3.74056 78.8906 4.44043V8H77.3965V4.81152C77.3965 4.41764 77.3298 4.12305 77.1963 3.92773C77.0661 3.72917 76.8594 3.62988 76.5762 3.62988C76.2116 3.62988 75.9382 3.76009 75.7559 4.02051C75.5768 4.28092 75.4873 4.69434 75.4873 5.26074V8Z" fill="#333333"/>
<path d="M23.0703 16L21.8594 12.8359H21.8398C21.8626 13.0866 21.874 13.3844 21.874 13.7295V16H21.4907V12.4307H22.1157L23.2461 15.375H23.2656L24.4058 12.4307H25.0259V16H24.6108V13.7002C24.6108 13.4365 24.6222 13.1501 24.645 12.8408H24.6255L23.4048 16H23.0703ZM27.5918 16L27.5112 15.6191H27.4917C27.3582 15.7868 27.2248 15.9007 27.0913 15.9609C26.9595 16.0195 26.7943 16.0488 26.5957 16.0488C26.3304 16.0488 26.1221 15.9805 25.9707 15.8438C25.821 15.707 25.7461 15.5125 25.7461 15.2603C25.7461 14.7199 26.1782 14.4367 27.0425 14.4106L27.4966 14.396V14.23C27.4966 14.02 27.451 13.8654 27.3599 13.7661C27.2703 13.6652 27.1263 13.6147 26.9277 13.6147C26.7048 13.6147 26.4525 13.6831 26.1709 13.8198L26.0464 13.5098C26.1782 13.4382 26.3223 13.382 26.4785 13.3413C26.6364 13.3006 26.7943 13.2803 26.9521 13.2803C27.2712 13.2803 27.5072 13.3511 27.6602 13.4927C27.8148 13.6343 27.8921 13.8613 27.8921 14.1738V16H27.5918ZM26.6763 15.7144C26.9285 15.7144 27.1263 15.6452 27.2695 15.5068C27.4144 15.3685 27.4868 15.1748 27.4868 14.9258V14.6841L27.0815 14.7012C26.7593 14.7126 26.5265 14.763 26.3833 14.8525C26.2417 14.9404 26.1709 15.078 26.1709 15.2651C26.1709 15.4116 26.2148 15.5231 26.3027 15.5996C26.3923 15.6761 26.5168 15.7144 26.6763 15.7144ZM29.9746 16.0488C29.8005 16.0488 29.641 16.0171 29.4961 15.9536C29.3529 15.8885 29.2324 15.7892 29.1348 15.6558H29.1055C29.125 15.812 29.1348 15.9601 29.1348 16.1001V17.2012H28.7295V13.3242H29.0591L29.1152 13.6904H29.1348C29.2389 13.5439 29.3602 13.4382 29.4985 13.373C29.6369 13.3079 29.7956 13.2754 29.9746 13.2754C30.3294 13.2754 30.6029 13.3966 30.7949 13.6392C30.9886 13.8817 31.0854 14.2218 31.0854 14.6597C31.0854 15.0991 30.987 15.4409 30.79 15.6851C30.5947 15.9276 30.3229 16.0488 29.9746 16.0488ZM29.916 13.6196C29.6426 13.6196 29.4448 13.6953 29.3228 13.8467C29.2007 13.998 29.138 14.2389 29.1348 14.5693V14.6597C29.1348 15.0356 29.1974 15.305 29.3228 15.4678C29.4481 15.6289 29.6491 15.7095 29.9258 15.7095C30.1569 15.7095 30.3376 15.6159 30.4678 15.4287C30.5996 15.2415 30.6655 14.9836 30.6655 14.6548C30.6655 14.3211 30.5996 14.0656 30.4678 13.8882C30.3376 13.7091 30.1536 13.6196 29.916 13.6196ZM33.356 13.3242H33.8003L32.6455 14.6157L33.8955 16H33.4219L32.2012 14.645V16H31.7959V13.3242H32.2012V14.6255L33.356 13.3242ZM35.5239 16.0488C35.1284 16.0488 34.8159 15.9284 34.5864 15.6875C34.3586 15.4466 34.2446 15.1121 34.2446 14.6841C34.2446 14.2528 34.3504 13.9102 34.562 13.6562C34.7752 13.4023 35.0609 13.2754 35.4189 13.2754C35.7542 13.2754 36.0195 13.3861 36.2148 13.6074C36.4102 13.8271 36.5078 14.1177 36.5078 14.479V14.7354H34.6646C34.6727 15.0495 34.7516 15.2879 34.9014 15.4507C35.0527 15.6134 35.2651 15.6948 35.5386 15.6948C35.8267 15.6948 36.1115 15.6346 36.3931 15.5142V15.8755C36.2498 15.9373 36.1139 15.9813 35.9854 16.0073C35.8584 16.035 35.7046 16.0488 35.5239 16.0488ZM35.4141 13.6147C35.1992 13.6147 35.0275 13.6847 34.8989 13.8247C34.772 13.9647 34.6971 14.1584 34.6743 14.4058H36.0732C36.0732 14.1502 36.0163 13.9549 35.9023 13.8198C35.7884 13.6831 35.6257 13.6147 35.4141 13.6147ZM39.0054 13.6709H38.1362V16H37.731V13.6709H36.8716V13.3242H39.0054V13.6709ZM39.916 13.3242V15.021L39.8989 15.4653L39.8916 15.6045L41.3394 13.3242H41.8447V16H41.4663V14.3643L41.4736 14.042L41.4858 13.7246L40.0405 16H39.5352V13.3242H39.916ZM43.1094 13.3242V14.4448H44.6084V13.3242H45.0137V16H44.6084V14.7939H43.1094V16H42.7041V13.3242H43.1094ZM47.4844 13.6709H46.2783V16H45.873V13.3242H47.4844V13.6709ZM50.3262 14.6597C50.3262 15.0959 50.2163 15.4368 49.9966 15.6826C49.7769 15.9268 49.4733 16.0488 49.0859 16.0488C48.8467 16.0488 48.6343 15.9927 48.4487 15.8804C48.2632 15.7681 48.12 15.6069 48.019 15.397C47.9181 15.187 47.8677 14.9412 47.8677 14.6597C47.8677 14.2235 47.9767 13.8841 48.1948 13.6416C48.4129 13.3975 48.7157 13.2754 49.103 13.2754C49.4774 13.2754 49.7744 13.3999 49.9941 13.6489C50.2155 13.8979 50.3262 14.2349 50.3262 14.6597ZM48.2876 14.6597C48.2876 15.0015 48.356 15.2619 48.4927 15.4409C48.6294 15.62 48.8304 15.7095 49.0957 15.7095C49.361 15.7095 49.562 15.6208 49.6987 15.4434C49.8371 15.2643 49.9062 15.0031 49.9062 14.6597C49.9062 14.3195 49.8371 14.0615 49.6987 13.8857C49.562 13.7083 49.3594 13.6196 49.0908 13.6196C48.8255 13.6196 48.6253 13.7067 48.4902 13.8809C48.3551 14.055 48.2876 14.3146 48.2876 14.6597ZM53.2095 13.9956C53.2095 14.1698 53.159 14.3024 53.0581 14.3936C52.9588 14.4831 52.8188 14.5433 52.6382 14.5742V14.5962C52.866 14.6271 53.0321 14.6938 53.1362 14.7964C53.242 14.8989 53.2949 15.0405 53.2949 15.2212C53.2949 15.4702 53.203 15.6623 53.019 15.7974C52.8368 15.9325 52.5698 16 52.2183 16H51.0391V13.3242H52.2134C52.8774 13.3242 53.2095 13.548 53.2095 13.9956ZM52.8896 15.1943C52.8896 15.0495 52.8343 14.9445 52.7236 14.8794C52.6146 14.8127 52.4331 14.7793 52.1792 14.7793H51.4443V15.6606H52.189C52.6561 15.6606 52.8896 15.5052 52.8896 15.1943ZM52.814 14.0347C52.814 13.9045 52.7635 13.8125 52.6626 13.7588C52.5633 13.7035 52.4119 13.6758 52.2085 13.6758H51.4443V14.4302H52.1304C52.381 14.4302 52.5576 14.3993 52.6602 14.3374C52.7627 14.2756 52.814 14.1746 52.814 14.0347ZM56.1953 14.6597C56.1953 15.0959 56.0854 15.4368 55.8657 15.6826C55.646 15.9268 55.3424 16.0488 54.9551 16.0488C54.7158 16.0488 54.5034 15.9927 54.3179 15.8804C54.1323 15.7681 53.9891 15.6069 53.8882 15.397C53.7873 15.187 53.7368 14.9412 53.7368 14.6597C53.7368 14.2235 53.8459 13.8841 54.064 13.6416C54.2821 13.3975 54.5848 13.2754 54.9722 13.2754C55.3465 13.2754 55.6436 13.3999 55.8633 13.6489C56.0846 13.8979 56.1953 14.2349 56.1953 14.6597ZM54.1567 14.6597C54.1567 15.0015 54.2251 15.2619 54.3618 15.4409C54.4985 15.62 54.6995 15.7095 54.9648 15.7095C55.2301 15.7095 55.4312 15.6208 55.5679 15.4434C55.7062 15.2643 55.7754 15.0031 55.7754 14.6597C55.7754 14.3195 55.7062 14.0615 55.5679 13.8857C55.4312 13.7083 55.2285 13.6196 54.96 13.6196C54.6947 13.6196 54.4945 13.7067 54.3594 13.8809C54.2243 14.055 54.1567 14.3146 54.1567 14.6597ZM58.0386 16.0488C57.6431 16.0488 57.3306 15.9284 57.1011 15.6875C56.8732 15.4466 56.7593 15.1121 56.7593 14.6841C56.7593 14.2528 56.8651 13.9102 57.0767 13.6562C57.2899 13.4023 57.5755 13.2754 57.9336 13.2754C58.2689 13.2754 58.5342 13.3861 58.7295 13.6074C58.9248 13.8271 59.0225 14.1177 59.0225 14.479V14.7354H57.1792C57.1873 15.0495 57.2663 15.2879 57.416 15.4507C57.5674 15.6134 57.7798 15.6948 58.0532 15.6948C58.3413 15.6948 58.6261 15.6346 58.9077 15.5142V15.8755C58.7645 15.9373 58.6286 15.9813 58.5 16.0073C58.373 16.035 58.2192 16.0488 58.0386 16.0488ZM57.9287 13.6147C57.7139 13.6147 57.5422 13.6847 57.4136 13.8247C57.2866 13.9647 57.2118 14.1584 57.189 14.4058H58.5879C58.5879 14.1502 58.5309 13.9549 58.417 13.8198C58.3031 13.6831 58.1403 13.6147 57.9287 13.6147ZM62.6602 16L62.5796 15.6191H62.5601C62.4266 15.7868 62.2931 15.9007 62.1597 15.9609C62.0278 16.0195 61.8626 16.0488 61.6641 16.0488C61.3988 16.0488 61.1904 15.9805 61.0391 15.8438C60.8893 15.707 60.8145 15.5125 60.8145 15.2603C60.8145 14.7199 61.2466 14.4367 62.1108 14.4106L62.5649 14.396V14.23C62.5649 14.02 62.5194 13.8654 62.4282 13.7661C62.3387 13.6652 62.1947 13.6147 61.9961 13.6147C61.7731 13.6147 61.5208 13.6831 61.2393 13.8198L61.1147 13.5098C61.2466 13.4382 61.3906 13.382 61.5469 13.3413C61.7048 13.3006 61.8626 13.2803 62.0205 13.2803C62.3395 13.2803 62.5755 13.3511 62.7285 13.4927C62.8831 13.6343 62.9604 13.8613 62.9604 14.1738V16H62.6602ZM61.7446 15.7144C61.9969 15.7144 62.1947 15.6452 62.3379 15.5068C62.4827 15.3685 62.5552 15.1748 62.5552 14.9258V14.6841L62.1499 14.7012C61.8276 14.7126 61.5949 14.763 61.4517 14.8525C61.3101 14.9404 61.2393 15.078 61.2393 15.2651C61.2393 15.4116 61.2832 15.5231 61.3711 15.5996C61.4606 15.6761 61.5851 15.7144 61.7446 15.7144ZM65.4092 13.6709H64.2031V16H63.7979V13.3242H65.4092V13.6709ZM67.0718 16.0488C66.6763 16.0488 66.3638 15.9284 66.1343 15.6875C65.9064 15.4466 65.7925 15.1121 65.7925 14.6841C65.7925 14.2528 65.8983 13.9102 66.1099 13.6562C66.3231 13.4023 66.6087 13.2754 66.9668 13.2754C67.3021 13.2754 67.5674 13.3861 67.7627 13.6074C67.958 13.8271 68.0557 14.1177 68.0557 14.479V14.7354H66.2124C66.2205 15.0495 66.2995 15.2879 66.4492 15.4507C66.6006 15.6134 66.813 15.6948 67.0864 15.6948C67.3745 15.6948 67.6593 15.6346 67.9409 15.5142V15.8755C67.7977 15.9373 67.6618 15.9813 67.5332 16.0073C67.4062 16.035 67.2524 16.0488 67.0718 16.0488ZM66.9619 13.6147C66.7471 13.6147 66.5754 13.6847 66.4468 13.8247C66.3198 13.9647 66.245 14.1584 66.2222 14.4058H67.6211C67.6211 14.1502 67.5641 13.9549 67.4502 13.8198C67.3363 13.6831 67.1735 13.6147 66.9619 13.6147ZM69.1543 13.3242V14.4448H70.6533V13.3242H71.0586V16H70.6533V14.7939H69.1543V16H68.749V13.3242H69.1543ZM73.7222 13.6709H72.853V16H72.4478V13.6709H71.5884V13.3242H73.7222V13.6709ZM75.3213 16.0488C74.9339 16.0488 74.6336 15.93 74.4204 15.6924C74.2088 15.4531 74.103 15.1154 74.103 14.6792C74.103 14.2316 74.2104 13.8857 74.4253 13.6416C74.6418 13.3975 74.9494 13.2754 75.3481 13.2754C75.4767 13.2754 75.6053 13.2892 75.7339 13.3169C75.8625 13.3446 75.9634 13.3771 76.0366 13.4146L75.9121 13.7588C75.8226 13.723 75.7249 13.6937 75.6191 13.6709C75.5133 13.6465 75.4198 13.6343 75.3384 13.6343C74.7948 13.6343 74.5229 13.981 74.5229 14.6743C74.5229 15.0031 74.5889 15.2554 74.7207 15.4312C74.8542 15.6069 75.0511 15.6948 75.3115 15.6948C75.5345 15.6948 75.7632 15.6468 75.9976 15.5508V15.9097C75.8185 16.0024 75.5931 16.0488 75.3213 16.0488ZM78.439 13.6709H77.5698V16H77.1646V13.6709H76.3052V13.3242H78.439V13.6709ZM81.1392 13.9956C81.1392 14.1698 81.0887 14.3024 80.9878 14.3936C80.8885 14.4831 80.7485 14.5433 80.5679 14.5742V14.5962C80.7957 14.6271 80.9618 14.6938 81.0659 14.7964C81.1717 14.8989 81.2246 15.0405 81.2246 15.2212C81.2246 15.4702 81.1326 15.6623 80.9487 15.7974C80.7664 15.9325 80.4995 16 80.1479 16H78.9688V13.3242H80.1431C80.8071 13.3242 81.1392 13.548 81.1392 13.9956ZM80.8193 15.1943C80.8193 15.0495 80.764 14.9445 80.6533 14.8794C80.5443 14.8127 80.3628 14.7793 80.1089 14.7793H79.374V15.6606H80.1187C80.5858 15.6606 80.8193 15.5052 80.8193 15.1943ZM80.7437 14.0347C80.7437 13.9045 80.6932 13.8125 80.5923 13.7588C80.493 13.7035 80.3416 13.6758 80.1382 13.6758H79.374V14.4302H80.0601C80.3107 14.4302 80.4873 14.3993 80.5898 14.3374C80.6924 14.2756 80.7437 14.1746 80.7437 14.0347ZM84.125 14.6597C84.125 15.0959 84.0151 15.4368 83.7954 15.6826C83.5757 15.9268 83.2721 16.0488 82.8848 16.0488C82.6455 16.0488 82.4331 15.9927 82.2476 15.8804C82.062 15.7681 81.9188 15.6069 81.8179 15.397C81.717 15.187 81.6665 14.9412 81.6665 14.6597C81.6665 14.2235 81.7756 13.8841 81.9937 13.6416C82.2118 13.3975 82.5145 13.2754 82.9019 13.2754C83.2762 13.2754 83.5732 13.3999 83.793 13.6489C84.0143 13.8979 84.125 14.2349 84.125 14.6597ZM82.0864 14.6597C82.0864 15.0015 82.1548 15.2619 82.2915 15.4409C82.4282 15.62 82.6292 15.7095 82.8945 15.7095C83.1598 15.7095 83.3608 15.6208 83.4976 15.4434C83.6359 15.2643 83.7051 15.0031 83.7051 14.6597C83.7051 14.3195 83.6359 14.0615 83.4976 13.8857C83.3608 13.7083 83.1582 13.6196 82.8896 13.6196C82.6243 13.6196 82.4242 13.7067 82.2891 13.8809C82.154 14.055 82.0864 14.3146 82.0864 14.6597Z" fill="#333333"/>
<circle cx="8" cy="8" r="8" fill="#B6CC43"/>
<path d="M6.29201 5.11848C6.29201 5.4437 6.37719 5.75085 6.54754 6.03993C6.72306 6.32901 6.96568 6.63616 7.27541 6.96138C7.85873 6.631 8.26655 6.32385 8.49884 6.03993C8.7363 5.75085 8.85503 5.42821 8.85503 5.07202C8.85503 4.73648 8.74147 4.46805 8.51433 4.26672C8.29236 4.0654 7.99553 3.96474 7.62386 3.96474C7.21604 3.96474 6.89083 4.07056 6.6482 4.28221C6.41074 4.4887 6.29201 4.76745 6.29201 5.11848ZM7.44576 12.5907C8.39044 12.5907 9.19832 12.3146 9.8694 11.7622L6.90373 8.84299C6.35654 9.19402 5.9797 9.5244 5.77322 9.83413C5.56673 10.1387 5.46349 10.4871 5.46349 10.8795C5.46349 11.3854 5.64158 11.7983 5.99777 12.1184C6.35912 12.4333 6.84179 12.5907 7.44576 12.5907ZM3.54316 11.0034C3.54316 10.3271 3.70835 9.73863 4.03873 9.2379C4.36911 8.732 4.96534 8.23127 5.82742 7.7357C5.33701 7.1627 5.00147 6.68004 4.8208 6.28771C4.64528 5.89023 4.55752 5.47983 4.55752 5.05654C4.55752 4.27189 4.83628 3.65242 5.3938 3.19815C5.95647 2.74388 6.71015 2.51675 7.65483 2.51675C8.56853 2.51675 9.28607 2.73872 9.80745 3.18267C10.3288 3.62145 10.5895 4.2151 10.5895 4.96362C10.5895 5.5521 10.414 6.08639 10.063 6.56647C9.71712 7.04655 9.13637 7.52664 8.32075 8.00672L10.9999 10.593C11.4181 10.0406 11.7665 9.23015 12.0453 8.16158H13.9191C13.5578 9.62764 12.9796 10.8227 12.1846 11.7467L14.5154 14H12.1691L11.0154 12.8772C10.4889 13.3005 9.92618 13.6206 9.32737 13.8374C8.73372 14.049 8.07555 14.1549 7.35284 14.1549C6.16554 14.1549 5.23377 13.8735 4.55752 13.3108C3.88128 12.7482 3.54316 11.979 3.54316 11.0034Z" fill="white"/>
</svg>
